<?xml version="1.0" encoding="UTF-8" standalone="no"?>
<!DOCTYPE svg PUBLIC "-//W3C//DTD SVG 1.1//EN" "http://www.w3.org/Graphics/SVG/1.1/DTD/svg11.dtd">
<!-- Generated by graphviz version 2.40.1 (20161225.0304)
 -->
<!-- Title: mygraph Pages: 1 -->
<svg width="2008pt" height="266pt" viewBox="0.00 0.00 2008.15 266.43" xmlns="http://www.w3.org/2000/svg" xmlns:xlink="http://www.w3.org/1999/xlink">
<g id="graph0" class="graph" transform="scale(1 1) rotate(0) translate(4 262.4264)">
<title>mygraph</title>
<polygon fill="#ffffff" stroke="transparent" points="-4,4 -4,-262.4264 2004.1543,-262.4264 2004.1543,4 -4,4"/>
<!-- //copt_setting:TEST/main (well&#45;documented_grove) -->
<g id="node1" class="node">
<title>//copt_setting:TEST/main (well-documented_grove)</title>
<polygon fill="#6672b1" fill-opacity="0.564706" stroke="#000000" points="195.5,-255.2132 28.5,-255.2132 28.5,-219.2132 195.5,-219.2132 195.5,-255.2132"/>
<polygon fill="#ffffff" stroke="transparent" points="37,-226.2132 37,-248.2132 188,-248.2132 188,-226.2132 37,-226.2132"/>
<polygon fill="none" stroke="#000000" points="37,-226.2132 37,-248.2132 188,-248.2132 188,-226.2132 37,-226.2132"/>
<text text-anchor="start" x="39.7826" y="-232.6132" font-family="Times,serif" font-size="14.00" fill="#000000">//copt_setting:TEST/main</text>
</g>
<!-- //copt_setting:TEST/main_with_cfg (well&#45;documented_grove) -->
<g id="node3" class="node">
<title>//copt_setting:TEST/main_with_cfg (well-documented_grove)</title>
<polygon fill="#6672b1" fill-opacity="0.564706" stroke="#000000" points="224,-180 0,-180 0,-144 224,-144 224,-180"/>
<polygon fill="#ffffff" stroke="transparent" points="8,-151 8,-173 216,-173 216,-151 8,-151"/>
<polygon fill="none" stroke="#000000" points="8,-151 8,-173 216,-173 216,-151 8,-151"/>
<text text-anchor="start" x="10.9011" y="-157.4" font-family="Times,serif" font-size="14.00" fill="#000000">//copt_setting:TEST/main_with_cfg</text>
</g>
<!-- //copt_setting:TEST/main (well&#45;documented_grove)&#45;&gt;//copt_setting:TEST/main_with_cfg (well&#45;documented_grove) -->
<g id="edge1" class="edge">
<title>//copt_setting:TEST/main (well-documented_grove)-&gt;//copt_setting:TEST/main_with_cfg (well-documented_grove)</title>
<path fill="none" stroke="#000000" d="M112,-219.0062C112,-210.3219 112,-199.737 112,-190.0563"/>
<polygon fill="#000000" stroke="#000000" points="115.5001,-190.0393 112,-180.0393 108.5001,-190.0394 115.5001,-190.0393"/>
</g>
<!-- (well&#45;documented_grove) -->
<g id="node2" class="node">
<title>(well-documented_grove)</title>
<ellipse fill="#6672b1" fill-opacity="0.564706" stroke="#000000" cx="871" cy="-237.2132" rx="154.7129" ry="21.4286"/>
<polygon fill="#ffffff" stroke="transparent" points="770,-226.2132 770,-248.2132 973,-248.2132 973,-226.2132 770,-226.2132"/>
<polygon fill="none" stroke="#000000" points="770,-226.2132 770,-248.2132 973,-248.2132 973,-226.2132 770,-226.2132"/>
<text text-anchor="start" x="772.5578" y="-232.6132" font-family="Times,serif" font-size="14.00" fill="#000000">6672b19 (well-documented_grove)</text>
</g>
<!-- //copt_setting:TEST/main_/main (unacceptable_mid&#45;course) -->
<g id="node4" class="node">
<title>//copt_setting:TEST/main_/main (unacceptable_mid-course)</title>
<polygon fill="transparent" stroke="#000000" points="224,-108 18,-108 18,-72 224,-72 224,-108"/>
<polygon fill="#ffffff" stroke="transparent" points="26,-79 26,-101 216,-101 216,-79 26,-79"/>
<polygon fill="none" stroke="#000000" points="26,-79 26,-101 216,-101 216,-79 26,-79"/>
<text text-anchor="start" x="28.8394" y="-85.4" font-family="Times,serif" font-size="14.00" fill="#000000">//copt_setting:TEST/main_/main</text>
</g>
<!-- //copt_setting:TEST/main_with_cfg (well&#45;documented_grove)&#45;&gt;//copt_setting:TEST/main_/main (unacceptable_mid&#45;course) -->
<g id="edge2" class="edge">
<title>//copt_setting:TEST/main_with_cfg (well-documented_grove)-&gt;//copt_setting:TEST/main_/main (unacceptable_mid-course)</title>
<path fill="none" stroke="#000000" d="M114.2711,-143.8314C115.2336,-136.131 116.3782,-126.9743 117.4479,-118.4166"/>
<polygon fill="#000000" stroke="#000000" points="120.9309,-118.7702 118.6983,-108.4133 113.9849,-117.9019 120.9309,-118.7702"/>
</g>
<!-- //copt_setting:main.c (null) -->
<g id="node6" class="node">
<title>//copt_setting:main.c (null)</title>
<polygon fill="#000000" stroke="#000000" points="425.5,-36 286.5,-36 286.5,0 425.5,0 425.5,-36"/>
<polygon fill="#ffffff" stroke="transparent" points="295,-7 295,-29 418,-29 418,-7 295,-7"/>
<polygon fill="none" stroke="#000000" points="295,-7 295,-29 418,-29 418,-7 295,-7"/>
<text text-anchor="start" x="297.5908" y="-13.4" font-family="Times,serif" font-size="14.00" fill="#000000">//copt_setting:main.c</text>
</g>
<!-- //copt_setting:TEST/main_/main (unacceptable_mid&#45;course)&#45;&gt;//copt_setting:main.c (null) -->
<g id="edge3" class="edge">
<title>//copt_setting:TEST/main_/main (unacceptable_mid-course)-&gt;//copt_setting:main.c (null)</title>
<path fill="none" stroke="#000000" d="M179.9971,-71.9243C212.542,-61.9531 253.1261,-49.5188 287.1189,-39.104"/>
<polygon fill="#000000" stroke="#000000" points="288.4426,-42.3591 296.9786,-36.0831 286.392,-35.6662 288.4426,-42.3591"/>
</g>
<!-- (unacceptable_mid&#45;course) -->
<g id="node5" class="node">
<title>(unacceptable_mid-course)</title>
<ellipse fill="transparent" stroke="#000000" cx="1204" cy="-237.2132" rx="159.6125" ry="21.4286"/>
<polygon fill="#ffffff" stroke="transparent" points="1099,-226.2132 1099,-248.2132 1309,-248.2132 1309,-226.2132 1099,-226.2132"/>
<polygon fill="none" stroke="#000000" points="1099,-226.2132 1099,-248.2132 1309,-248.2132 1309,-226.2132 1099,-226.2132"/>
<text text-anchor="start" x="1101.5669" y="-232.6132" font-family="Times,serif" font-size="14.00" fill="#000000">66dd380 (unacceptable_mid-course)</text>
</g>
<!-- //copt_setting:PROD/main (well&#45;documented_grove) -->
<g id="node7" class="node">
<title>//copt_setting:PROD/main (well-documented_grove)</title>
<polygon fill="#6672b1" fill-opacity="0.564706" stroke="#000000" points="441.5,-255.2132 270.5,-255.2132 270.5,-219.2132 441.5,-219.2132 441.5,-255.2132"/>
<polygon fill="#ffffff" stroke="transparent" points="279,-226.2132 279,-248.2132 434,-248.2132 434,-226.2132 279,-226.2132"/>
<polygon fill="none" stroke="#000000" points="279,-226.2132 279,-248.2132 434,-248.2132 434,-226.2132 279,-226.2132"/>
<text text-anchor="start" x="281.8366" y="-232.6132" font-family="Times,serif" font-size="14.00" fill="#000000">//copt_setting:PROD/main</text>
</g>
<!-- //copt_setting:PROD/main_with_cfg (well&#45;documented_grove) -->
<g id="node8" class="node">
<title>//copt_setting:PROD/main_with_cfg (well-documented_grove)</title>
<polygon fill="#6672b1" fill-opacity="0.564706" stroke="#000000" points="470,-180 242,-180 242,-144 470,-144 470,-180"/>
<polygon fill="#ffffff" stroke="transparent" points="250,-151 250,-173 462,-173 462,-151 250,-151"/>
<polygon fill="none" stroke="#000000" points="250,-151 250,-173 462,-173 462,-151 250,-151"/>
<text text-anchor="start" x="252.9551" y="-157.4" font-family="Times,serif" font-size="14.00" fill="#000000">//copt_setting:PROD/main_with_cfg</text>
</g>
<!-- //copt_setting:PROD/main (well&#45;documented_grove)&#45;&gt;//copt_setting:PROD/main_with_cfg (well&#45;documented_grove) -->
<g id="edge4" class="edge">
<title>//copt_setting:PROD/main (well-documented_grove)-&gt;//copt_setting:PROD/main_with_cfg (well-documented_grove)</title>
<path fill="none" stroke="#000000" d="M356,-219.0062C356,-210.3219 356,-199.737 356,-190.0563"/>
<polygon fill="#000000" stroke="#000000" points="359.5001,-190.0393 356,-180.0393 352.5001,-190.0394 359.5001,-190.0393"/>
</g>
<!-- //copt_setting:PROD/main_/main (discrete_bench) -->
<g id="node9" class="node">
<title>//copt_setting:PROD/main_/main (discrete_bench)</title>
<polygon fill="#f8d564" fill-opacity="0.376471" stroke="#000000" points="461,-108 251,-108 251,-72 461,-72 461,-108"/>
<polygon fill="#ffffff" stroke="transparent" points="259,-79 259,-101 453,-101 453,-79 259,-79"/>
<polygon fill="none" stroke="#000000" points="259,-79 259,-101 453,-101 453,-79 259,-79"/>
<text text-anchor="start" x="261.8934" y="-85.4" font-family="Times,serif" font-size="14.00" fill="#000000">//copt_setting:PROD/main_/main</text>
</g>
<!-- //copt_setting:PROD/main_with_cfg (well&#45;documented_grove)&#45;&gt;//copt_setting:PROD/main_/main (discrete_bench) -->
<g id="edge5" class="edge">
<title>//copt_setting:PROD/main_with_cfg (well-documented_grove)-&gt;//copt_setting:PROD/main_/main (discrete_bench)</title>
<path fill="none" stroke="#000000" d="M356,-143.8314C356,-136.131 356,-126.9743 356,-118.4166"/>
<polygon fill="#000000" stroke="#000000" points="359.5001,-118.4132 356,-108.4133 352.5001,-118.4133 359.5001,-118.4132"/>
</g>
<!-- //copt_setting:PROD/main_/main (discrete_bench)&#45;&gt;//copt_setting:main.c (null) -->
<g id="edge6" class="edge">
<title>//copt_setting:PROD/main_/main (discrete_bench)-&gt;//copt_setting:main.c (null)</title>
<path fill="none" stroke="#000000" d="M356,-71.8314C356,-64.131 356,-54.9743 356,-46.4166"/>
<polygon fill="#000000" stroke="#000000" points="359.5001,-46.4132 356,-36.4133 352.5001,-46.4133 359.5001,-46.4132"/>
</g>
<!-- (discrete_bench) -->
<g id="node10" class="node">
<title>(discrete_bench)</title>
<ellipse fill="#f8d564" fill-opacity="0.376471" stroke="#000000" cx="1498" cy="-237.2132" rx="116.8455" ry="21.4286"/>
<polygon fill="#ffffff" stroke="transparent" points="1424,-226.2132 1424,-248.2132 1573,-248.2132 1573,-226.2132 1424,-226.2132"/>
<polygon fill="none" stroke="#000000" points="1424,-226.2132 1424,-248.2132 1573,-248.2132 1573,-226.2132 1424,-226.2132"/>
<text text-anchor="start" x="1426.7794" y="-232.6132" font-family="Times,serif" font-size="14.00" fill="#000000">f8d5646 (discrete_bench)</text>
</g>
<!-- //copt_setting:DEBUG/main (well&#45;documented_grove) -->
<g id="node11" class="node">
<title>//copt_setting:DEBUG/main (well-documented_grove)</title>
<polygon fill="#6672b1" fill-opacity="0.564706" stroke="#000000" points="698,-255.2132 516,-255.2132 516,-219.2132 698,-219.2132 698,-255.2132"/>
<polygon fill="#ffffff" stroke="transparent" points="524,-226.2132 524,-248.2132 690,-248.2132 690,-226.2132 524,-226.2132"/>
<polygon fill="none" stroke="#000000" points="524,-226.2132 524,-248.2132 690,-248.2132 690,-226.2132 524,-226.2132"/>
<text text-anchor="start" x="526.8983" y="-232.6132" font-family="Times,serif" font-size="14.00" fill="#000000">//copt_setting:DEBUG/main</text>
</g>
<!-- //copt_setting:DEBUG/main_with_cfg (well&#45;documented_grove) -->
<g id="node12" class="node">
<title>//copt_setting:DEBUG/main_with_cfg (well-documented_grove)</title>
<polygon fill="#6672b1" fill-opacity="0.564706" stroke="#000000" points="726,-180 488,-180 488,-144 726,-144 726,-180"/>
<polygon fill="#ffffff" stroke="transparent" points="496,-151 496,-173 718,-173 718,-151 496,-151"/>
<polygon fill="none" stroke="#000000" points="496,-151 496,-173 718,-173 718,-151 496,-151"/>
<text text-anchor="start" x="498.5168" y="-157.4" font-family="Times,serif" font-size="14.00" fill="#000000">//copt_setting:DEBUG/main_with_cfg</text>
</g>
<!-- //copt_setting:DEBUG/main (well&#45;documented_grove)&#45;&gt;//copt_setting:DEBUG/main_with_cfg (well&#45;documented_grove) -->
<g id="edge7" class="edge">
<title>//copt_setting:DEBUG/main (well-documented_grove)-&gt;//copt_setting:DEBUG/main_with_cfg (well-documented_grove)</title>
<path fill="none" stroke="#000000" d="M607,-219.0062C607,-210.3219 607,-199.737 607,-190.0563"/>
<polygon fill="#000000" stroke="#000000" points="610.5001,-190.0393 607,-180.0393 603.5001,-190.0394 610.5001,-190.0393"/>
</g>
<!-- //copt_setting:DEBUG/main_/main (real_nucleotide) -->
<g id="node13" class="node">
<title>//copt_setting:DEBUG/main_/main (real_nucleotide)</title>
<polygon fill="#dc5b70" fill-opacity="0.815686" stroke="#000000" points="708.5,-108 487.5,-108 487.5,-72 708.5,-72 708.5,-108"/>
<polygon fill="#ffffff" stroke="transparent" points="496,-79 496,-101 701,-101 701,-79 496,-79"/>
<polygon fill="none" stroke="#000000" points="496,-79 496,-101 701,-101 701,-79 496,-79"/>
<text text-anchor="start" x="498.9551" y="-85.4" font-family="Times,serif" font-size="14.00" fill="#000000">//copt_setting:DEBUG/main_/main</text>
</g>
<!-- //copt_setting:DEBUG/main_with_cfg (well&#45;documented_grove)&#45;&gt;//copt_setting:DEBUG/main_/main (real_nucleotide) -->
<g id="edge8" class="edge">
<title>//copt_setting:DEBUG/main_with_cfg (well-documented_grove)-&gt;//copt_setting:DEBUG/main_/main (real_nucleotide)</title>
<path fill="none" stroke="#000000" d="M604.7289,-143.8314C603.7664,-136.131 602.6218,-126.9743 601.5521,-118.4166"/>
<polygon fill="#000000" stroke="#000000" points="605.0151,-117.9019 600.3017,-108.4133 598.0691,-118.7702 605.0151,-117.9019"/>
</g>
<!-- //copt_setting:DEBUG/main_/main (real_nucleotide)&#45;&gt;//copt_setting:main.c (null) -->
<g id="edge9" class="edge">
<title>//copt_setting:DEBUG/main_/main (real_nucleotide)-&gt;//copt_setting:main.c (null)</title>
<path fill="none" stroke="#000000" d="M537.2455,-71.9243C503.5874,-61.9103 461.5793,-49.412 426.4826,-38.97"/>
<polygon fill="#000000" stroke="#000000" points="427.3623,-35.5802 416.7794,-36.0831 425.3661,-42.2896 427.3623,-35.5802"/>
</g>
<!-- (real_nucleotide) -->
<g id="node14" class="node">
<title>(real_nucleotide)</title>
<ellipse fill="#dc5b70" fill-opacity="0.815686" stroke="#000000" cx="1752" cy="-237.2132" rx="119.5021" ry="21.4286"/>
<polygon fill="#ffffff" stroke="transparent" points="1676,-226.2132 1676,-248.2132 1829,-248.2132 1829,-226.2132 1676,-226.2132"/>
<polygon fill="none" stroke="#000000" points="1676,-226.2132 1676,-248.2132 1829,-248.2132 1829,-226.2132 1676,-226.2132"/>
<text text-anchor="start" x="1678.8341" y="-232.6132" font-family="Times,serif" font-size="14.00" fill="#000000">dc5b70d (real_nucleotide)</text>
</g>
<!-- (null) -->
<g id="node15" class="node">
<title>(null)</title>
<ellipse fill="#000000" stroke="#000000" cx="1945" cy="-237.2132" rx="55.3091" ry="21.4286"/>
<polygon fill="#ffffff" stroke="transparent" points="1914,-226.2132 1914,-248.2132 1976,-248.2132 1976,-226.2132 1914,-226.2132"/>
<polygon fill="none" stroke="#000000" points="1914,-226.2132 1914,-248.2132 1976,-248.2132 1976,-226.2132 1914,-226.2132"/>
<text text-anchor="start" x="1916.8082" y="-232.6132" font-family="Times,serif" font-size="14.00" fill="#000000">null (null)</text>
</g>
</g>
</svg>