<?xml version="1.0" encoding="UTF-8" ?>
<svg width="2387pt" height="597pt" viewBox="0.00 0.00 2387.00 596.80" xmlns="http://www.w3.org/2000/svg" xmlns:xlink="http://www.w3.org/1999/xlink">
<g id="graph0" class="graph" transform="scale(1 1) rotate(0) translate(36 560.8)">
<title>CG</title>
<polygon fill="#ffffff" stroke="transparent" points="-36,36 -36,-560.8 2351,-560.8 2351,36 -36,36"/>
<g id="clust1" class="cluster">
<title>cluster_diligent_technician___eec668</title>
<polygon fill="none" stroke="#000000" points="8,-332 8,-516.8 2307,-516.8 2307,-332 8,-332"/>
<text text-anchor="middle" x="1157.5" y="-500.2" font-family="Times,serif" font-size="14.00" fill="#000000">diligent_technician - eec668</text>
</g>
<g id="clust2" class="cluster">
<title>cluster_husky_coral___29033c</title>
<polygon fill="none" stroke="#000000" points="1372,-8 1372,-300.8 1871,-300.8 1871,-8 1372,-8"/>
<text text-anchor="middle" x="1621.5" y="-284.2" font-family="Times,serif" font-size="14.00" fill="#000000">husky_coral - 29033c</text>
</g>
<g id="clust3" class="cluster">
<title>cluster_svelte_rust___0cbd5d</title>
<polygon fill="none" stroke="#000000" points="401,-8 401,-300.8 900,-300.8 900,-8 401,-8"/>
<text text-anchor="middle" x="650.5" y="-284.2" font-family="Times,serif" font-size="14.00" fill="#000000">svelte_rust - 0cbd5d</text>
</g>
<!-- //implicit_settings:windows/main.stripped (diligent_technician) -->
<g id="node1" class="node">
<title>//implicit_settings:windows/main.stripped (diligent_technician)</title>
<polygon fill="#eec668" stroke="#000000" points="2299,-484 2041,-484 2041,-448 2299,-448 2299,-484"/>
<polygon fill="#ffffff" stroke="transparent" points="2049,-455 2049,-477 2291,-477 2291,-455 2049,-455"/>
<polygon fill="none" stroke="#000000" points="2049,-455 2049,-477 2291,-477 2291,-455 2049,-455"/>
<text text-anchor="start" x="2051.9793" y="-461.4" font-family="Times,serif" font-size="14.00" fill="#000000">//implicit_settings:windows/main.stripped</text>
</g>
<!-- //implicit_settings:windows/main.dwp (diligent_technician) -->
<g id="node2" class="node">
<title>//implicit_settings:windows/main.dwp (diligent_technician)</title>
<polygon fill="#eec668" stroke="#000000" points="1997.5,-484 1760.5,-484 1760.5,-448 1997.5,-448 1997.5,-484"/>
<polygon fill="#ffffff" stroke="transparent" points="1769,-455 1769,-477 1990,-477 1990,-455 1769,-455"/>
<polygon fill="none" stroke="#000000" points="1769,-455 1769,-477 1990,-477 1990,-455 1769,-455"/>
<text text-anchor="start" x="1771.9765" y="-461.4" font-family="Times,serif" font-size="14.00" fill="#000000">//implicit_settings:windows/main.dwp</text>
</g>
<!-- //implicit_settings:windows/main (diligent_technician) -->
<g id="node3" class="node">
<title>//implicit_settings:windows/main (diligent_technician)</title>
<polygon fill="#eec668" stroke="#000000" points="751.5,-484 542.5,-484 542.5,-448 751.5,-448 751.5,-484"/>
<polygon fill="#ffffff" stroke="transparent" points="551,-455 551,-477 744,-477 744,-455 551,-455"/>
<polygon fill="none" stroke="#000000" points="551,-455 551,-477 744,-477 744,-455 551,-455"/>
<text text-anchor="start" x="553.7798" y="-461.4" font-family="Times,serif" font-size="14.00" fill="#000000">//implicit_settings:windows/main</text>
</g>
<!-- //implicit_settings:windows/main_with_cfg (diligent_technician) -->
<g id="node4" class="node">
<title>//implicit_settings:windows/main_with_cfg (diligent_technician)</title>
<polygon fill="#eec668" stroke="#000000" points="783,-376 517,-376 517,-340 783,-340 783,-376"/>
<polygon fill="#ffffff" stroke="transparent" points="525,-347 525,-369 775,-369 775,-347 525,-347"/>
<polygon fill="none" stroke="#000000" points="525,-347 525,-369 775,-369 775,-347 525,-347"/>
<text text-anchor="start" x="527.8983" y="-353.4" font-family="Times,serif" font-size="14.00" fill="#000000">//implicit_settings:windows/main_with_cfg</text>
</g>
<!-- //implicit_settings:windows/main (diligent_technician)&#45;&gt;//implicit_settings:windows/main_with_cfg (diligent_technician) -->
<g id="edge13" class="edge">
<title>//implicit_settings:windows/main (diligent_technician)-&gt;//implicit_settings:windows/main_with_cfg (diligent_technician)</title>
<path fill="none" stroke="#eec668" d="M647,-447.6793C647,-447.6793 647,-386.0502 647,-386.0502"/>
<polygon fill="#eec668" stroke="#eec668" points="650.5001,-386.0501 647,-376.0502 643.5001,-386.0502 650.5001,-386.0501"/>
</g>
<!-- //implicit_settings:windows/main_/main (svelte_rust) -->
<g id="node19" class="node">
<title>//implicit_settings:windows/main_/main (svelte_rust)</title>
<polygon fill="#0cbd5d" stroke="#000000" points="774,-268 526,-268 526,-232 774,-232 774,-268"/>
<polygon fill="#ffffff" stroke="transparent" points="534,-239 534,-261 766,-261 766,-239 534,-239"/>
<polygon fill="none" stroke="#000000" points="534,-239 534,-261 766,-261 766,-239 534,-239"/>
<text text-anchor="start" x="536.8366" y="-245.4" font-family="Times,serif" font-size="14.00" fill="#000000">//implicit_settings:windows/main_/main</text>
</g>
<!-- //implicit_settings:windows/main_with_cfg (diligent_technician)&#45;&gt;//implicit_settings:windows/main_/main (svelte_rust) -->
<g id="edge4" class="edge">
<title>//implicit_settings:windows/main_with_cfg (diligent_technician)-&gt;//implicit_settings:windows/main_/main (svelte_rust)</title>
<path fill="none" stroke="#eec668" d="M650,-339.6793C650,-339.6793 650,-278.0502 650,-278.0502"/>
<polygon fill="#eec668" stroke="#eec668" points="653.5001,-278.0501 650,-268.0502 646.5001,-278.0502 653.5001,-278.0501"/>
</g>
<!-- //implicit_settings:main (diligent_technician) -->
<g id="node5" class="node">
<title>//implicit_settings:main (diligent_technician)</title>
<polygon fill="#eec668" stroke="#000000" points="1487.5,-484 1332.5,-484 1332.5,-448 1487.5,-448 1487.5,-484"/>
<polygon fill="#ffffff" stroke="transparent" points="1341,-455 1341,-477 1480,-477 1480,-455 1341,-455"/>
<polygon fill="none" stroke="#000000" points="1341,-455 1341,-477 1480,-477 1480,-455 1341,-455"/>
<text text-anchor="start" x="1343.9993" y="-461.4" font-family="Times,serif" font-size="14.00" fill="#000000">//implicit_settings:main</text>
</g>
<!-- //implicit_settings:linux/main.stripped (diligent_technician) -->
<g id="node6" class="node">
<title>//implicit_settings:linux/main.stripped (diligent_technician)</title>
<polygon fill="#eec668" stroke="#000000" points="1289,-484 1053,-484 1053,-448 1289,-448 1289,-484"/>
<polygon fill="#ffffff" stroke="transparent" points="1061,-455 1061,-477 1281,-477 1281,-455 1061,-455"/>
<polygon fill="none" stroke="#000000" points="1061,-455 1061,-477 1281,-477 1281,-455 1061,-455"/>
<text text-anchor="start" x="1063.8629" y="-461.4" font-family="Times,serif" font-size="14.00" fill="#000000">//implicit_settings:linux/main.stripped</text>
</g>
<!-- //implicit_settings:linux/main.dwp (diligent_technician) -->
<g id="node7" class="node">
<title>//implicit_settings:linux/main.dwp (diligent_technician)</title>
<polygon fill="#eec668" stroke="#000000" points="1009.5,-484 794.5,-484 794.5,-448 1009.5,-448 1009.5,-484"/>
<polygon fill="#ffffff" stroke="transparent" points="803,-455 803,-477 1002,-477 1002,-455 803,-455"/>
<polygon fill="none" stroke="#000000" points="803,-455 803,-477 1002,-477 1002,-455 803,-455"/>
<text text-anchor="start" x="805.8601" y="-461.4" font-family="Times,serif" font-size="14.00" fill="#000000">//implicit_settings:linux/main.dwp</text>
</g>
<!-- //implicit_settings:linux/main (diligent_technician) -->
<g id="node8" class="node">
<title>//implicit_settings:linux/main (diligent_technician)</title>
<polygon fill="#eec668" stroke="#000000" points="1717.5,-484 1530.5,-484 1530.5,-448 1717.5,-448 1717.5,-484"/>
<polygon fill="#ffffff" stroke="transparent" points="1539,-455 1539,-477 1710,-477 1710,-455 1539,-455"/>
<polygon fill="none" stroke="#000000" points="1539,-455 1539,-477 1710,-477 1710,-455 1539,-455"/>
<text text-anchor="start" x="1541.6634" y="-461.4" font-family="Times,serif" font-size="14.00" fill="#000000">//implicit_settings:linux/main</text>
</g>
<!-- //implicit_settings:linux/main_with_cfg (diligent_technician) -->
<g id="node9" class="node">
<title>//implicit_settings:linux/main_with_cfg (diligent_technician)</title>
<polygon fill="#eec668" stroke="#000000" points="1746,-376 1502,-376 1502,-340 1746,-340 1746,-376"/>
<polygon fill="#ffffff" stroke="transparent" points="1510,-347 1510,-369 1738,-369 1738,-347 1510,-347"/>
<polygon fill="none" stroke="#000000" points="1510,-347 1510,-369 1738,-369 1738,-347 1510,-347"/>
<text text-anchor="start" x="1512.7819" y="-353.4" font-family="Times,serif" font-size="14.00" fill="#000000">//implicit_settings:linux/main_with_cfg</text>
</g>
<!-- //implicit_settings:linux/main (diligent_technician)&#45;&gt;//implicit_settings:linux/main_with_cfg (diligent_technician) -->
<g id="edge1" class="edge">
<title>//implicit_settings:linux/main (diligent_technician)-&gt;//implicit_settings:linux/main_with_cfg (diligent_technician)</title>
<path fill="none" stroke="#eec668" d="M1624,-447.6793C1624,-447.6793 1624,-386.0502 1624,-386.0502"/>
<polygon fill="#eec668" stroke="#eec668" points="1627.5001,-386.0501 1624,-376.0502 1620.5001,-386.0502 1627.5001,-386.0501"/>
</g>
<!-- //implicit_settings:linux/main_/main (husky_coral) -->
<g id="node14" class="node">
<title>//implicit_settings:linux/main_/main (husky_coral)</title>
<polygon fill="#29033c" stroke="#000000" points="1737,-268 1511,-268 1511,-232 1737,-232 1737,-268"/>
<polygon fill="#ffffff" stroke="transparent" points="1519,-239 1519,-261 1729,-261 1729,-239 1519,-239"/>
<polygon fill="none" stroke="#000000" points="1519,-239 1519,-261 1729,-261 1729,-239 1519,-239"/>
<text text-anchor="start" x="1521.7202" y="-245.4" font-family="Times,serif" font-size="14.00" fill="#000000">//implicit_settings:linux/main_/main</text>
</g>
<!-- //implicit_settings:linux/main_with_cfg (diligent_technician)&#45;&gt;//implicit_settings:linux/main_/main (husky_coral) -->
<g id="edge7" class="edge">
<title>//implicit_settings:linux/main_with_cfg (diligent_technician)-&gt;//implicit_settings:linux/main_/main (husky_coral)</title>
<path fill="none" stroke="#eec668" d="M1624,-339.6793C1624,-339.6793 1624,-278.0502 1624,-278.0502"/>
<polygon fill="#eec668" stroke="#eec668" points="1627.5001,-278.0501 1624,-268.0502 1620.5001,-278.0502 1627.5001,-278.0501"/>
</g>
<!-- //implicit_settings:define_well_known (diligent_technician) -->
<g id="node10" class="node">
<title>//implicit_settings:define_well_known (diligent_technician)</title>
<polygon fill="#eec668" stroke="#000000" points="499,-484 261,-484 261,-448 499,-448 499,-484"/>
<polygon fill="#ffffff" stroke="transparent" points="269,-455 269,-477 491,-477 491,-455 269,-455"/>
<polygon fill="none" stroke="#000000" points="269,-455 269,-477 491,-477 491,-455 269,-455"/>
<text text-anchor="start" x="271.9025" y="-461.4" font-family="Times,serif" font-size="14.00" fill="#000000">//implicit_settings:define_well_known</text>
</g>
<!-- //implicit_settings:well_known (diligent_technician) -->
<g id="node11" class="node">
<title>//implicit_settings:well_known (diligent_technician)</title>
<polygon fill="#eec668" stroke="#000000" points="474,-376 278,-376 278,-340 474,-340 474,-376"/>
<polygon fill="#ffffff" stroke="transparent" points="286,-347 286,-369 466,-369 466,-347 286,-347"/>
<polygon fill="none" stroke="#000000" points="286,-347 286,-369 466,-369 466,-347 286,-347"/>
<text text-anchor="start" x="288.8927" y="-353.4" font-family="Times,serif" font-size="14.00" fill="#000000">//implicit_settings:well_known</text>
</g>
<!-- //implicit_settings:define_well_known (diligent_technician)&#45;&gt;//implicit_settings:well_known (diligent_technician) -->
<g id="edge9" class="edge">
<title>//implicit_settings:define_well_known (diligent_technician)-&gt;//implicit_settings:well_known (diligent_technician)</title>
<path fill="none" stroke="#eec668" d="M376,-447.6793C376,-447.6793 376,-386.0502 376,-386.0502"/>
<polygon fill="#eec668" stroke="#eec668" points="379.5001,-386.0501 376,-376.0502 372.5001,-386.0502 379.5001,-386.0501"/>
</g>
<!-- //implicit_settings:define_secret (diligent_technician) -->
<g id="node12" class="node">
<title>//implicit_settings:define_secret (diligent_technician)</title>
<polygon fill="#eec668" stroke="#000000" points="217.5,-484 16.5,-484 16.5,-448 217.5,-448 217.5,-484"/>
<polygon fill="#ffffff" stroke="transparent" points="25,-455 25,-477 210,-477 210,-455 25,-455"/>
<polygon fill="none" stroke="#000000" points="25,-455 25,-477 210,-477 210,-455 25,-455"/>
<text text-anchor="start" x="27.6872" y="-461.4" font-family="Times,serif" font-size="14.00" fill="#000000">//implicit_settings:define_secret</text>
</g>
<!-- //implicit_settings:secret (diligent_technician) -->
<g id="node13" class="node">
<title>//implicit_settings:secret (diligent_technician)</title>
<polygon fill="#eec668" stroke="#000000" points="196.5,-376 37.5,-376 37.5,-340 196.5,-340 196.5,-376"/>
<polygon fill="#ffffff" stroke="transparent" points="46,-347 46,-369 189,-369 189,-347 46,-347"/>
<polygon fill="none" stroke="#000000" points="46,-347 46,-369 189,-369 189,-347 46,-347"/>
<text text-anchor="start" x="48.6774" y="-353.4" font-family="Times,serif" font-size="14.00" fill="#000000">//implicit_settings:secret</text>
</g>
<!-- //implicit_settings:define_secret (diligent_technician)&#45;&gt;//implicit_settings:secret (diligent_technician) -->
<g id="edge5" class="edge">
<title>//implicit_settings:define_secret (diligent_technician)-&gt;//implicit_settings:secret (diligent_technician)</title>
<path fill="none" stroke="#eec668" d="M117,-447.6793C117,-447.6793 117,-386.0502 117,-386.0502"/>
<polygon fill="#eec668" stroke="#eec668" points="120.5001,-386.0501 117,-376.0502 113.5001,-386.0502 120.5001,-386.0501"/>
</g>
<!-- //implicit_settings:define_well_known (husky_coral) -->
<g id="node15" class="node">
<title>//implicit_settings:define_well_known (husky_coral)</title>
<polygon fill="#29033c" stroke="#000000" points="1618,-160 1380,-160 1380,-124 1618,-124 1618,-160"/>
<polygon fill="#ffffff" stroke="transparent" points="1388,-131 1388,-153 1610,-153 1610,-131 1388,-131"/>
<polygon fill="none" stroke="#000000" points="1388,-131 1388,-153 1610,-153 1610,-131 1388,-131"/>
<text text-anchor="start" x="1390.9025" y="-137.4" font-family="Times,serif" font-size="14.00" fill="#000000">//implicit_settings:define_well_known</text>
</g>
<!-- //implicit_settings:linux/main_/main (husky_coral)&#45;&gt;//implicit_settings:define_well_known (husky_coral) -->
<g id="edge11" class="edge">
<title>//implicit_settings:linux/main_/main (husky_coral)-&gt;//implicit_settings:define_well_known (husky_coral)</title>
<path fill="none" stroke="#29033c" d="M1564.5,-231.6793C1564.5,-231.6793 1564.5,-170.0502 1564.5,-170.0502"/>
<polygon fill="#29033c" stroke="#29033c" points="1568.0001,-170.0501 1564.5,-160.0502 1561.0001,-170.0502 1568.0001,-170.0501"/>
</g>
<!-- //implicit_settings:define_secret (husky_coral) -->
<g id="node17" class="node">
<title>//implicit_settings:define_secret (husky_coral)</title>
<polygon fill="#29033c" stroke="#000000" points="1862.5,-160 1661.5,-160 1661.5,-124 1862.5,-124 1862.5,-160"/>
<polygon fill="#ffffff" stroke="transparent" points="1670,-131 1670,-153 1855,-153 1855,-131 1670,-131"/>
<polygon fill="none" stroke="#000000" points="1670,-131 1670,-153 1855,-153 1855,-131 1670,-131"/>
<text text-anchor="start" x="1672.6872" y="-137.4" font-family="Times,serif" font-size="14.00" fill="#000000">//implicit_settings:define_secret</text>
</g>
<!-- //implicit_settings:linux/main_/main (husky_coral)&#45;&gt;//implicit_settings:define_secret (husky_coral) -->
<g id="edge6" class="edge">
<title>//implicit_settings:linux/main_/main (husky_coral)-&gt;//implicit_settings:define_secret (husky_coral)</title>
<path fill="none" stroke="#29033c" d="M1699.25,-231.6793C1699.25,-231.6793 1699.25,-170.0502 1699.25,-170.0502"/>
<polygon fill="#29033c" stroke="#29033c" points="1702.7501,-170.0501 1699.25,-160.0502 1695.7501,-170.0502 1702.7501,-170.0501"/>
</g>
<!-- //implicit_settings:well_known (husky_coral) -->
<g id="node16" class="node">
<title>//implicit_settings:well_known (husky_coral)</title>
<polygon fill="#29033c" stroke="#000000" points="1597,-52 1401,-52 1401,-16 1597,-16 1597,-52"/>
<polygon fill="#ffffff" stroke="transparent" points="1409,-23 1409,-45 1589,-45 1589,-23 1409,-23"/>
<polygon fill="none" stroke="#000000" points="1409,-23 1409,-45 1589,-45 1589,-23 1409,-23"/>
<text text-anchor="start" x="1411.8927" y="-29.4" font-family="Times,serif" font-size="14.00" fill="#000000">//implicit_settings:well_known</text>
</g>
<!-- //implicit_settings:define_well_known (husky_coral)&#45;&gt;//implicit_settings:well_known (husky_coral) -->
<g id="edge12" class="edge">
<title>//implicit_settings:define_well_known (husky_coral)-&gt;//implicit_settings:well_known (husky_coral)</title>
<path fill="none" stroke="#29033c" d="M1499,-123.6793C1499,-123.6793 1499,-62.0502 1499,-62.0502"/>
<polygon fill="#29033c" stroke="#29033c" points="1502.5001,-62.0501 1499,-52.0502 1495.5001,-62.0502 1502.5001,-62.0501"/>
</g>
<!-- //implicit_settings:secret (husky_coral) -->
<g id="node18" class="node">
<title>//implicit_settings:secret (husky_coral)</title>
<polygon fill="#29033c" stroke="#000000" points="1841.5,-52 1682.5,-52 1682.5,-16 1841.5,-16 1841.5,-52"/>
<polygon fill="#ffffff" stroke="transparent" points="1691,-23 1691,-45 1834,-45 1834,-23 1691,-23"/>
<polygon fill="none" stroke="#000000" points="1691,-23 1691,-45 1834,-45 1834,-23 1691,-23"/>
<text text-anchor="start" x="1693.6774" y="-29.4" font-family="Times,serif" font-size="14.00" fill="#000000">//implicit_settings:secret</text>
</g>
<!-- //implicit_settings:define_secret (husky_coral)&#45;&gt;//implicit_settings:secret (husky_coral) -->
<g id="edge2" class="edge">
<title>//implicit_settings:define_secret (husky_coral)-&gt;//implicit_settings:secret (husky_coral)</title>
<path fill="none" stroke="#29033c" d="M1762,-123.6793C1762,-123.6793 1762,-62.0502 1762,-62.0502"/>
<polygon fill="#29033c" stroke="#29033c" points="1765.5001,-62.0501 1762,-52.0502 1758.5001,-62.0502 1765.5001,-62.0501"/>
</g>
<!-- //implicit_settings:define_well_known (svelte_rust) -->
<g id="node20" class="node">
<title>//implicit_settings:define_well_known (svelte_rust)</title>
<polygon fill="#0cbd5d" stroke="#000000" points="647,-160 409,-160 409,-124 647,-124 647,-160"/>
<polygon fill="#ffffff" stroke="transparent" points="417,-131 417,-153 639,-153 639,-131 417,-131"/>
<polygon fill="none" stroke="#000000" points="417,-131 417,-153 639,-153 639,-131 417,-131"/>
<text text-anchor="start" x="419.9025" y="-137.4" font-family="Times,serif" font-size="14.00" fill="#000000">//implicit_settings:define_well_known</text>
</g>
<!-- //implicit_settings:windows/main_/main (svelte_rust)&#45;&gt;//implicit_settings:define_well_known (svelte_rust) -->
<g id="edge10" class="edge">
<title>//implicit_settings:windows/main_/main (svelte_rust)-&gt;//implicit_settings:define_well_known (svelte_rust)</title>
<path fill="none" stroke="#0cbd5d" d="M586.5,-231.6793C586.5,-231.6793 586.5,-170.0502 586.5,-170.0502"/>
<polygon fill="#0cbd5d" stroke="#0cbd5d" points="590.0001,-170.0501 586.5,-160.0502 583.0001,-170.0502 590.0001,-170.0501"/>
</g>
<!-- //implicit_settings:define_secret (svelte_rust) -->
<g id="node22" class="node">
<title>//implicit_settings:define_secret (svelte_rust)</title>
<polygon fill="#0cbd5d" stroke="#000000" points="891.5,-160 690.5,-160 690.5,-124 891.5,-124 891.5,-160"/>
<polygon fill="#ffffff" stroke="transparent" points="699,-131 699,-153 884,-153 884,-131 699,-131"/>
<polygon fill="none" stroke="#000000" points="699,-131 699,-153 884,-153 884,-131 699,-131"/>
<text text-anchor="start" x="701.6872" y="-137.4" font-family="Times,serif" font-size="14.00" fill="#000000">//implicit_settings:define_secret</text>
</g>
<!-- //implicit_settings:windows/main_/main (svelte_rust)&#45;&gt;//implicit_settings:define_secret (svelte_rust) -->
<g id="edge14" class="edge">
<title>//implicit_settings:windows/main_/main (svelte_rust)-&gt;//implicit_settings:define_secret (svelte_rust)</title>
<path fill="none" stroke="#0cbd5d" d="M732.25,-231.6793C732.25,-231.6793 732.25,-170.0502 732.25,-170.0502"/>
<polygon fill="#0cbd5d" stroke="#0cbd5d" points="735.7501,-170.0501 732.25,-160.0502 728.7501,-170.0502 735.7501,-170.0501"/>
</g>
<!-- //implicit_settings:well_known (svelte_rust) -->
<g id="node21" class="node">
<title>//implicit_settings:well_known (svelte_rust)</title>
<polygon fill="#0cbd5d" stroke="#000000" points="626,-52 430,-52 430,-16 626,-16 626,-52"/>
<polygon fill="#ffffff" stroke="transparent" points="438,-23 438,-45 618,-45 618,-23 438,-23"/>
<polygon fill="none" stroke="#000000" points="438,-23 438,-45 618,-45 618,-23 438,-23"/>
<text text-anchor="start" x="440.8927" y="-29.4" font-family="Times,serif" font-size="14.00" fill="#000000">//implicit_settings:well_known</text>
</g>
<!-- //implicit_settings:define_well_known (svelte_rust)&#45;&gt;//implicit_settings:well_known (svelte_rust) -->
<g id="edge3" class="edge">
<title>//implicit_settings:define_well_known (svelte_rust)-&gt;//implicit_settings:well_known (svelte_rust)</title>
<path fill="none" stroke="#0cbd5d" d="M528,-123.6793C528,-123.6793 528,-62.0502 528,-62.0502"/>
<polygon fill="#0cbd5d" stroke="#0cbd5d" points="531.5001,-62.0501 528,-52.0502 524.5001,-62.0502 531.5001,-62.0501"/>
</g>
<!-- //implicit_settings:secret (svelte_rust) -->
<g id="node23" class="node">
<title>//implicit_settings:secret (svelte_rust)</title>
<polygon fill="#0cbd5d" stroke="#000000" points="870.5,-52 711.5,-52 711.5,-16 870.5,-16 870.5,-52"/>
<polygon fill="#ffffff" stroke="transparent" points="720,-23 720,-45 863,-45 863,-23 720,-23"/>
<polygon fill="none" stroke="#000000" points="720,-23 720,-45 863,-45 863,-23 720,-23"/>
<text text-anchor="start" x="722.6774" y="-29.4" font-family="Times,serif" font-size="14.00" fill="#000000">//implicit_settings:secret</text>
</g>
<!-- //implicit_settings:define_secret (svelte_rust)&#45;&gt;//implicit_settings:secret (svelte_rust) -->
<g id="edge8" class="edge">
<title>//implicit_settings:define_secret (svelte_rust)-&gt;//implicit_settings:secret (svelte_rust)</title>
<path fill="none" stroke="#0cbd5d" d="M791,-123.6793C791,-123.6793 791,-62.0502 791,-62.0502"/>
<polygon fill="#0cbd5d" stroke="#0cbd5d" points="794.5001,-62.0501 791,-52.0502 787.5001,-62.0502 794.5001,-62.0501"/>
</g>
</g>
</svg>
