<?xml version="1.0" encoding="UTF-8" standalone="no"?>
<!DOCTYPE svg PUBLIC "-//W3C//DTD SVG 1.1//EN" "http://www.w3.org/Graphics/SVG/1.1/DTD/svg11.dtd">
<!-- Generated by graphviz version 2.40.1 (20161225.0304)
 -->
<!-- Title: mygraph Pages: 1 -->
<svg width="1610pt" height="482pt" viewBox="0.00 0.00 1610.15 482.43" xmlns="http://www.w3.org/2000/svg" xmlns:xlink="http://www.w3.org/1999/xlink">
<g id="graph0" class="graph" transform="scale(1 1) rotate(0) translate(4 478.4264)">
<title>mygraph</title>
<polygon fill="#ffffff" stroke="transparent" points="-4,4 -4,-478.4264 1606.1543,-478.4264 1606.1543,4 -4,4"/>
<!-- //cc_complex:wrl6x64_dev/greeting (angelic_dwelling) -->
<g id="node1" class="node">
<title>//cc_complex:wrl6x64_dev/greeting (angelic_dwelling)</title>
<polygon fill="#c6e652" fill-opacity="0.250980" stroke="#000000" points="301,-471.2132 77,-471.2132 77,-435.2132 301,-435.2132 301,-471.2132"/>
<polygon fill="#ffffff" stroke="transparent" points="85,-442.2132 85,-464.2132 293,-464.2132 293,-442.2132 85,-442.2132"/>
<polygon fill="none" stroke="#000000" points="85,-442.2132 85,-464.2132 293,-464.2132 293,-442.2132 85,-442.2132"/>
<text text-anchor="start" x="87.5273" y="-448.6132" font-family="Times,serif" font-size="14.00" fill="#000000">//cc_complex:wrl6x64_dev/greeting</text>
</g>
<!-- //cc_complex:wrl6x64_dev/greeting_with_cfg (angelic_dwelling) -->
<g id="node3" class="node">
<title>//cc_complex:wrl6x64_dev/greeting_with_cfg (angelic_dwelling)</title>
<polygon fill="#c6e652" fill-opacity="0.250980" stroke="#000000" points="329.5,-396 48.5,-396 48.5,-360 329.5,-360 329.5,-396"/>
<polygon fill="#ffffff" stroke="transparent" points="57,-367 57,-389 322,-389 322,-367 57,-367"/>
<polygon fill="none" stroke="#000000" points="57,-367 57,-389 322,-389 322,-367 57,-367"/>
<text text-anchor="start" x="59.6458" y="-373.4" font-family="Times,serif" font-size="14.00" fill="#000000">//cc_complex:wrl6x64_dev/greeting_with_cfg</text>
</g>
<!-- //cc_complex:wrl6x64_dev/greeting (angelic_dwelling)&#45;&gt;//cc_complex:wrl6x64_dev/greeting_with_cfg (angelic_dwelling) -->
<g id="edge1" class="edge">
<title>//cc_complex:wrl6x64_dev/greeting (angelic_dwelling)-&gt;//cc_complex:wrl6x64_dev/greeting_with_cfg (angelic_dwelling)</title>
<path fill="none" stroke="#000000" d="M189,-435.0062C189,-426.3219 189,-415.737 189,-406.0563"/>
<polygon fill="#000000" stroke="#000000" points="192.5001,-406.0393 189,-396.0393 185.5001,-406.0394 192.5001,-406.0393"/>
</g>
<!-- (angelic_dwelling) -->
<g id="node2" class="node">
<title>(angelic_dwelling)</title>
<ellipse fill="#c6e652" fill-opacity="0.250980" stroke="#000000" cx="778" cy="-453.2132" rx="125.7302" ry="21.4286"/>
<polygon fill="#ffffff" stroke="transparent" points="697,-442.2132 697,-464.2132 859,-464.2132 859,-442.2132 697,-442.2132"/>
<polygon fill="none" stroke="#000000" points="697,-442.2132 697,-464.2132 859,-464.2132 859,-442.2132 697,-442.2132"/>
<text text-anchor="start" x="699.6658" y="-448.6132" font-family="Times,serif" font-size="14.00" fill="#000000">c6e6524 (angelic_dwelling)</text>
</g>
<!-- //cc_complex:wrl6x64_dev/greeting_/greeting (self&#45;reliant_circle) -->
<g id="node4" class="node">
<title>//cc_complex:wrl6x64_dev/greeting_/greeting (self-reliant_circle)</title>
<polygon fill="#f43753" fill-opacity="0.250980" stroke="#000000" points="329.5,-324 48.5,-324 48.5,-288 329.5,-288 329.5,-324"/>
<polygon fill="#ffffff" stroke="transparent" points="57,-295 57,-317 322,-317 322,-295 57,-295"/>
<polygon fill="none" stroke="#000000" points="57,-295 57,-317 322,-317 322,-295 57,-295"/>
<text text-anchor="start" x="59.6465" y="-301.4" font-family="Times,serif" font-size="14.00" fill="#000000">//cc_complex:wrl6x64_dev/greeting_/greeting</text>
</g>
<!-- //cc_complex:wrl6x64_dev/greeting_with_cfg (angelic_dwelling)&#45;&gt;//cc_complex:wrl6x64_dev/greeting_/greeting (self&#45;reliant_circle) -->
<g id="edge2" class="edge">
<title>//cc_complex:wrl6x64_dev/greeting_with_cfg (angelic_dwelling)-&gt;//cc_complex:wrl6x64_dev/greeting_/greeting (self-reliant_circle)</title>
<path fill="none" stroke="#000000" d="M189,-359.8314C189,-352.131 189,-342.9743 189,-334.4166"/>
<polygon fill="#000000" stroke="#000000" points="192.5001,-334.4132 189,-324.4133 185.5001,-334.4133 192.5001,-334.4132"/>
</g>
<!-- //cc_complex:main.cc (null) -->
<g id="node6" class="node">
<title>//cc_complex:main.cc (null)</title>
<polygon fill="#000000" stroke="#000000" points="411.5,-252 266.5,-252 266.5,-216 411.5,-216 411.5,-252"/>
<polygon fill="#ffffff" stroke="transparent" points="275,-223 275,-245 404,-245 404,-223 275,-223"/>
<polygon fill="none" stroke="#000000" points="275,-223 275,-245 404,-245 404,-223 275,-223"/>
<text text-anchor="start" x="277.8818" y="-229.4" font-family="Times,serif" font-size="14.00" fill="#000000">//cc_complex:main.cc</text>
</g>
<!-- //cc_complex:wrl6x64_dev/greeting_/greeting (self&#45;reliant_circle)&#45;&gt;//cc_complex:main.cc (null) -->
<g id="edge3" class="edge">
<title>//cc_complex:wrl6x64_dev/greeting_/greeting (self-reliant_circle)-&gt;//cc_complex:main.cc (null)</title>
<path fill="none" stroke="#000000" d="M226.8513,-287.8314C246.7346,-278.2874 271.2782,-266.5065 292.3305,-256.4013"/>
<polygon fill="#000000" stroke="#000000" points="293.9202,-259.5207 301.4209,-252.038 290.891,-253.21 293.9202,-259.5207"/>
</g>
<!-- //cc_complex:wrl6x64_dev/libgreeting (self&#45;reliant_circle) -->
<g id="node7" class="node">
<title>//cc_complex:wrl6x64_dev/libgreeting (self-reliant_circle)</title>
<polygon fill="#f43753" fill-opacity="0.250980" stroke="#000000" points="248.5,-252 9.5,-252 9.5,-216 248.5,-216 248.5,-252"/>
<polygon fill="#ffffff" stroke="transparent" points="18,-223 18,-245 241,-245 241,-223 18,-223"/>
<polygon fill="none" stroke="#000000" points="18,-223 18,-245 241,-245 241,-223 18,-223"/>
<text text-anchor="start" x="20.6367" y="-229.4" font-family="Times,serif" font-size="14.00" fill="#000000">//cc_complex:wrl6x64_dev/libgreeting</text>
</g>
<!-- //cc_complex:wrl6x64_dev/greeting_/greeting (self&#45;reliant_circle)&#45;&gt;//cc_complex:wrl6x64_dev/libgreeting (self&#45;reliant_circle) -->
<g id="edge4" class="edge">
<title>//cc_complex:wrl6x64_dev/greeting_/greeting (self-reliant_circle)-&gt;//cc_complex:wrl6x64_dev/libgreeting (self-reliant_circle)</title>
<path fill="none" stroke="#000000" d="M173.8595,-287.8314C166.8783,-279.454 158.4609,-269.3531 150.8124,-260.1749"/>
<polygon fill="#000000" stroke="#000000" points="153.4351,-257.8548 144.3444,-252.4133 148.0575,-262.3362 153.4351,-257.8548"/>
</g>
<!-- (self&#45;reliant_circle) -->
<g id="node5" class="node">
<title>(self-reliant_circle)</title>
<ellipse fill="#f43753" fill-opacity="0.250980" stroke="#000000" cx="1049" cy="-453.2132" rx="127.0588" ry="21.4286"/>
<polygon fill="#ffffff" stroke="transparent" points="967,-442.2132 967,-464.2132 1131,-464.2132 1131,-442.2132 967,-442.2132"/>
<polygon fill="none" stroke="#000000" points="967,-442.2132 967,-464.2132 1131,-464.2132 1131,-442.2132 967,-442.2132"/>
<text text-anchor="start" x="969.9" y="-448.6132" font-family="Times,serif" font-size="14.00" fill="#000000">f437534 (self-reliant_circle)</text>
</g>
<!-- //cc_complex:wrl6x64_dev/libgreeting_with_cfg (self&#45;reliant_circle) -->
<g id="node8" class="node">
<title>//cc_complex:wrl6x64_dev/libgreeting_with_cfg (self-reliant_circle)</title>
<polygon fill="#f43753" fill-opacity="0.250980" stroke="#000000" points="296,-180 0,-180 0,-144 296,-144 296,-180"/>
<polygon fill="#ffffff" stroke="transparent" points="8,-151 8,-173 288,-173 288,-151 8,-151"/>
<polygon fill="none" stroke="#000000" points="8,-151 8,-173 288,-173 288,-151 8,-151"/>
<text text-anchor="start" x="10.7552" y="-157.4" font-family="Times,serif" font-size="14.00" fill="#000000">//cc_complex:wrl6x64_dev/libgreeting_with_cfg</text>
</g>
<!-- //cc_complex:wrl6x64_dev/libgreeting (self&#45;reliant_circle)&#45;&gt;//cc_complex:wrl6x64_dev/libgreeting_with_cfg (self&#45;reliant_circle) -->
<g id="edge5" class="edge">
<title>//cc_complex:wrl6x64_dev/libgreeting (self-reliant_circle)-&gt;//cc_complex:wrl6x64_dev/libgreeting_with_cfg (self-reliant_circle)</title>
<path fill="none" stroke="#000000" d="M133.7945,-215.8314C135.8489,-208.0463 138.296,-198.7729 140.5756,-190.1347"/>
<polygon fill="#000000" stroke="#000000" points="143.9735,-190.9753 143.1409,-180.4133 137.2052,-189.1892 143.9735,-190.9753"/>
</g>
<!-- //cc_complex:wrl6x64_dev/libgreeting_/libgreeting (self&#45;reliant_circle) -->
<g id="node9" class="node">
<title>//cc_complex:wrl6x64_dev/libgreeting_/libgreeting (self-reliant_circle)</title>
<polygon fill="#f43753" fill-opacity="0.250980" stroke="#000000" points="312.5,-108 1.5,-108 1.5,-72 312.5,-72 312.5,-108"/>
<polygon fill="#ffffff" stroke="transparent" points="10,-79 10,-101 305,-101 305,-79 10,-79"/>
<polygon fill="none" stroke="#000000" points="10,-79 10,-101 305,-101 305,-79 10,-79"/>
<text text-anchor="start" x="12.8653" y="-85.4" font-family="Times,serif" font-size="14.00" fill="#000000">//cc_complex:wrl6x64_dev/libgreeting_/libgreeting</text>
</g>
<!-- //cc_complex:wrl6x64_dev/libgreeting_with_cfg (self&#45;reliant_circle)&#45;&gt;//cc_complex:wrl6x64_dev/libgreeting_/libgreeting (self&#45;reliant_circle) -->
<g id="edge6" class="edge">
<title>//cc_complex:wrl6x64_dev/libgreeting_with_cfg (self-reliant_circle)-&gt;//cc_complex:wrl6x64_dev/libgreeting_/libgreeting (self-reliant_circle)</title>
<path fill="none" stroke="#000000" d="M150.2711,-143.8314C151.2336,-136.131 152.3782,-126.9743 153.4479,-118.4166"/>
<polygon fill="#000000" stroke="#000000" points="156.9309,-118.7702 154.6983,-108.4133 149.9849,-117.9019 156.9309,-118.7702"/>
</g>
<!-- //cc_complex:greeting.bye.cc (null) -->
<g id="node10" class="node">
<title>//cc_complex:greeting.bye.cc (null)</title>
<polygon fill="#000000" stroke="#000000" points="250,-36 64,-36 64,0 250,0 250,-36"/>
<polygon fill="#ffffff" stroke="transparent" points="72,-7 72,-29 242,-29 242,-7 72,-7"/>
<polygon fill="none" stroke="#000000" points="72,-7 72,-29 242,-29 242,-7 72,-7"/>
<text text-anchor="start" x="74.5869" y="-13.4" font-family="Times,serif" font-size="14.00" fill="#000000">//cc_complex:greeting.bye.cc</text>
</g>
<!-- //cc_complex:wrl6x64_dev/libgreeting_/libgreeting (self&#45;reliant_circle)&#45;&gt;//cc_complex:greeting.bye.cc (null) -->
<g id="edge7" class="edge">
<title>//cc_complex:wrl6x64_dev/libgreeting_/libgreeting (self-reliant_circle)-&gt;//cc_complex:greeting.bye.cc (null)</title>
<path fill="none" stroke="#000000" d="M157,-71.8314C157,-64.131 157,-54.9743 157,-46.4166"/>
<polygon fill="#000000" stroke="#000000" points="160.5001,-46.4132 157,-36.4133 153.5001,-46.4133 160.5001,-46.4132"/>
</g>
<!-- //cc_complex:greeting.h (null) -->
<g id="node11" class="node">
<title>//cc_complex:greeting.h (null)</title>
<polygon fill="#000000" stroke="#000000" points="430.5,-36 273.5,-36 273.5,0 430.5,0 430.5,-36"/>
<polygon fill="#ffffff" stroke="transparent" points="282,-7 282,-29 423,-29 423,-7 282,-7"/>
<polygon fill="none" stroke="#000000" points="282,-7 282,-29 423,-29 423,-7 282,-7"/>
<text text-anchor="start" x="284.6588" y="-13.4" font-family="Times,serif" font-size="14.00" fill="#000000">//cc_complex:greeting.h</text>
</g>
<!-- //cc_complex:wrl6x64_dev/libgreeting_/libgreeting (self&#45;reliant_circle)&#45;&gt;//cc_complex:greeting.h (null) -->
<g id="edge8" class="edge">
<title>//cc_complex:wrl6x64_dev/libgreeting_/libgreeting (self-reliant_circle)-&gt;//cc_complex:greeting.h (null)</title>
<path fill="none" stroke="#000000" d="M205.955,-71.9243C232.4968,-62.1243 265.4823,-49.945 293.3858,-39.6422"/>
<polygon fill="#000000" stroke="#000000" points="294.8562,-42.8303 303.0248,-36.0831 292.4315,-36.2636 294.8562,-42.8303"/>
</g>
<!-- //cc_complex:rhel8x64_dev/greeting (angelic_dwelling) -->
<g id="node12" class="node">
<title>//cc_complex:rhel8x64_dev/greeting (angelic_dwelling)</title>
<polygon fill="#c6e652" fill-opacity="0.250980" stroke="#000000" points="634,-471.2132 406,-471.2132 406,-435.2132 634,-435.2132 634,-471.2132"/>
<polygon fill="#ffffff" stroke="transparent" points="414,-442.2132 414,-464.2132 626,-464.2132 626,-442.2132 414,-442.2132"/>
<polygon fill="none" stroke="#000000" points="414,-442.2132 414,-464.2132 626,-464.2132 626,-442.2132 414,-442.2132"/>
<text text-anchor="start" x="416.9733" y="-448.6132" font-family="Times,serif" font-size="14.00" fill="#000000">//cc_complex:rhel8x64_dev/greeting</text>
</g>
<!-- //cc_complex:rhel8x64_dev/greeting_with_cfg (angelic_dwelling) -->
<g id="node13" class="node">
<title>//cc_complex:rhel8x64_dev/greeting_with_cfg (angelic_dwelling)</title>
<polygon fill="#c6e652" fill-opacity="0.250980" stroke="#000000" points="662,-396 378,-396 378,-360 662,-360 662,-396"/>
<polygon fill="#ffffff" stroke="transparent" points="386,-367 386,-389 654,-389 654,-367 386,-367"/>
<polygon fill="none" stroke="#000000" points="386,-367 386,-389 654,-389 654,-367 386,-367"/>
<text text-anchor="start" x="388.5918" y="-373.4" font-family="Times,serif" font-size="14.00" fill="#000000">//cc_complex:rhel8x64_dev/greeting_with_cfg</text>
</g>
<!-- //cc_complex:rhel8x64_dev/greeting (angelic_dwelling)&#45;&gt;//cc_complex:rhel8x64_dev/greeting_with_cfg (angelic_dwelling) -->
<g id="edge9" class="edge">
<title>//cc_complex:rhel8x64_dev/greeting (angelic_dwelling)-&gt;//cc_complex:rhel8x64_dev/greeting_with_cfg (angelic_dwelling)</title>
<path fill="none" stroke="#000000" d="M520,-435.0062C520,-426.3219 520,-415.737 520,-406.0563"/>
<polygon fill="#000000" stroke="#000000" points="523.5001,-406.0393 520,-396.0393 516.5001,-406.0394 523.5001,-406.0393"/>
</g>
<!-- //cc_complex:rhel8x64_dev/greeting_/greeting (big&#45;hearted_mailbox) -->
<g id="node14" class="node">
<title>//cc_complex:rhel8x64_dev/greeting_/greeting (big-hearted_mailbox)</title>
<polygon fill="#157f73" fill-opacity="0.690196" stroke="#000000" points="662,-324 378,-324 378,-288 662,-288 662,-324"/>
<polygon fill="#ffffff" stroke="transparent" points="386,-295 386,-317 654,-317 654,-295 386,-295"/>
<polygon fill="none" stroke="#000000" points="386,-295 386,-317 654,-317 654,-295 386,-295"/>
<text text-anchor="start" x="388.5925" y="-301.4" font-family="Times,serif" font-size="14.00" fill="#000000">//cc_complex:rhel8x64_dev/greeting_/greeting</text>
</g>
<!-- //cc_complex:rhel8x64_dev/greeting_with_cfg (angelic_dwelling)&#45;&gt;//cc_complex:rhel8x64_dev/greeting_/greeting (big&#45;hearted_mailbox) -->
<g id="edge10" class="edge">
<title>//cc_complex:rhel8x64_dev/greeting_with_cfg (angelic_dwelling)-&gt;//cc_complex:rhel8x64_dev/greeting_/greeting (big-hearted_mailbox)</title>
<path fill="none" stroke="#000000" d="M520,-359.8314C520,-352.131 520,-342.9743 520,-334.4166"/>
<polygon fill="#000000" stroke="#000000" points="523.5001,-334.4132 520,-324.4133 516.5001,-334.4133 523.5001,-334.4132"/>
</g>
<!-- //cc_complex:rhel8x64_dev/greeting_/greeting (big&#45;hearted_mailbox)&#45;&gt;//cc_complex:main.cc (null) -->
<g id="edge11" class="edge">
<title>//cc_complex:rhel8x64_dev/greeting_/greeting (big-hearted_mailbox)-&gt;//cc_complex:main.cc (null)</title>
<path fill="none" stroke="#000000" d="M474.3261,-287.8314C449.9032,-278.1162 419.6534,-266.0831 393.9516,-255.8592"/>
<polygon fill="#000000" stroke="#000000" points="394.931,-252.4821 384.3455,-252.038 392.3437,-258.9864 394.931,-252.4821"/>
</g>
<!-- //cc_complex:rhel8x64_dev/libgreeting (big&#45;hearted_mailbox) -->
<g id="node16" class="node">
<title>//cc_complex:rhel8x64_dev/libgreeting (big-hearted_mailbox)</title>
<polygon fill="#157f73" fill-opacity="0.690196" stroke="#000000" points="672,-252 430,-252 430,-216 672,-216 672,-252"/>
<polygon fill="#ffffff" stroke="transparent" points="438,-223 438,-245 664,-245 664,-223 438,-223"/>
<polygon fill="none" stroke="#000000" points="438,-223 438,-245 664,-245 664,-223 438,-223"/>
<text text-anchor="start" x="440.5827" y="-229.4" font-family="Times,serif" font-size="14.00" fill="#000000">//cc_complex:rhel8x64_dev/libgreeting</text>
</g>
<!-- //cc_complex:rhel8x64_dev/greeting_/greeting (big&#45;hearted_mailbox)&#45;&gt;//cc_complex:rhel8x64_dev/libgreeting (big&#45;hearted_mailbox) -->
<g id="edge12" class="edge">
<title>//cc_complex:rhel8x64_dev/greeting_/greeting (big-hearted_mailbox)-&gt;//cc_complex:rhel8x64_dev/libgreeting (big-hearted_mailbox)</title>
<path fill="none" stroke="#000000" d="M527.8226,-287.8314C531.2109,-279.9617 535.2541,-270.5712 539.0076,-261.8533"/>
<polygon fill="#000000" stroke="#000000" points="542.3321,-262.9822 543.0721,-252.4133 535.9027,-260.214 542.3321,-262.9822"/>
</g>
<!-- (big&#45;hearted_mailbox) -->
<g id="node15" class="node">
<title>(big-hearted_mailbox)</title>
<ellipse fill="#157f73" fill-opacity="0.690196" stroke="#000000" cx="1334" cy="-453.2132" rx="140.0143" ry="21.4286"/>
<polygon fill="#ffffff" stroke="transparent" points="1243,-442.2132 1243,-464.2132 1425,-464.2132 1425,-442.2132 1243,-442.2132"/>
<polygon fill="none" stroke="#000000" points="1243,-442.2132 1243,-464.2132 1425,-464.2132 1425,-442.2132 1243,-442.2132"/>
<text text-anchor="start" x="1245.9428" y="-448.6132" font-family="Times,serif" font-size="14.00" fill="#000000">157f73b (big-hearted_mailbox)</text>
</g>
<!-- //cc_complex:rhel8x64_dev/libgreeting_with_cfg (big&#45;hearted_mailbox) -->
<g id="node17" class="node">
<title>//cc_complex:rhel8x64_dev/libgreeting_with_cfg (big-hearted_mailbox)</title>
<polygon fill="#157f73" fill-opacity="0.690196" stroke="#000000" points="698.5,-180 399.5,-180 399.5,-144 698.5,-144 698.5,-180"/>
<polygon fill="#ffffff" stroke="transparent" points="408,-151 408,-173 691,-173 691,-151 408,-151"/>
<polygon fill="none" stroke="#000000" points="408,-151 408,-173 691,-173 691,-151 408,-151"/>
<text text-anchor="start" x="410.7012" y="-157.4" font-family="Times,serif" font-size="14.00" fill="#000000">//cc_complex:rhel8x64_dev/libgreeting_with_cfg</text>
</g>
<!-- //cc_complex:rhel8x64_dev/libgreeting (big&#45;hearted_mailbox)&#45;&gt;//cc_complex:rhel8x64_dev/libgreeting_with_cfg (big&#45;hearted_mailbox) -->
<g id="edge13" class="edge">
<title>//cc_complex:rhel8x64_dev/libgreeting (big-hearted_mailbox)-&gt;//cc_complex:rhel8x64_dev/libgreeting_with_cfg (big-hearted_mailbox)</title>
<path fill="none" stroke="#000000" d="M550.4953,-215.8314C550.2814,-208.131 550.0271,-198.9743 549.7894,-190.4166"/>
<polygon fill="#000000" stroke="#000000" points="553.2879,-190.3122 549.5115,-180.4133 546.2906,-190.5066 553.2879,-190.3122"/>
</g>
<!-- //cc_complex:rhel8x64_dev/libgreeting_/libgreeting (big&#45;hearted_mailbox) -->
<g id="node18" class="node">
<title>//cc_complex:rhel8x64_dev/libgreeting_/libgreeting (big-hearted_mailbox)</title>
<polygon fill="#157f73" fill-opacity="0.690196" stroke="#000000" points="705,-108 391,-108 391,-72 705,-72 705,-108"/>
<polygon fill="#ffffff" stroke="transparent" points="399,-79 399,-101 697,-101 697,-79 399,-79"/>
<polygon fill="none" stroke="#000000" points="399,-79 399,-101 697,-101 697,-79 399,-79"/>
<text text-anchor="start" x="401.8113" y="-85.4" font-family="Times,serif" font-size="14.00" fill="#000000">//cc_complex:rhel8x64_dev/libgreeting_/libgreeting</text>
</g>
<!-- //cc_complex:rhel8x64_dev/libgreeting_with_cfg (big&#45;hearted_mailbox)&#45;&gt;//cc_complex:rhel8x64_dev/libgreeting_/libgreeting (big&#45;hearted_mailbox) -->
<g id="edge14" class="edge">
<title>//cc_complex:rhel8x64_dev/libgreeting_with_cfg (big-hearted_mailbox)-&gt;//cc_complex:rhel8x64_dev/libgreeting_/libgreeting (big-hearted_mailbox)</title>
<path fill="none" stroke="#000000" d="M548.7477,-143.8314C548.6407,-136.131 548.5135,-126.9743 548.3947,-118.4166"/>
<polygon fill="#000000" stroke="#000000" points="551.8944,-118.3637 548.2557,-108.4133 544.8951,-118.4609 551.8944,-118.3637"/>
</g>
<!-- //cc_complex:rhel8x64_dev/libgreeting_/libgreeting (big&#45;hearted_mailbox)&#45;&gt;//cc_complex:greeting.h (null) -->
<g id="edge15" class="edge">
<title>//cc_complex:rhel8x64_dev/libgreeting_/libgreeting (big-hearted_mailbox)-&gt;//cc_complex:greeting.h (null)</title>
<path fill="none" stroke="#000000" d="M498.7939,-71.9243C472.1161,-62.1243 438.9614,-49.945 410.9148,-39.6422"/>
<polygon fill="#000000" stroke="#000000" points="411.8199,-36.246 401.2263,-36.0831 409.4062,-42.8167 411.8199,-36.246"/>
</g>
<!-- //cc_complex:greeting.hello.cc (null) -->
<g id="node19" class="node">
<title>//cc_complex:greeting.hello.cc (null)</title>
<polygon fill="#000000" stroke="#000000" points="645,-36 451,-36 451,0 645,0 645,-36"/>
<polygon fill="#ffffff" stroke="transparent" points="459,-7 459,-29 637,-29 637,-7 459,-7"/>
<polygon fill="none" stroke="#000000" points="459,-7 459,-29 637,-29 637,-7 459,-7"/>
<text text-anchor="start" x="461.6963" y="-13.4" font-family="Times,serif" font-size="14.00" fill="#000000">//cc_complex:greeting.hello.cc</text>
</g>
<!-- //cc_complex:rhel8x64_dev/libgreeting_/libgreeting (big&#45;hearted_mailbox)&#45;&gt;//cc_complex:greeting.hello.cc (null) -->
<g id="edge16" class="edge">
<title>//cc_complex:rhel8x64_dev/libgreeting_/libgreeting (big-hearted_mailbox)-&gt;//cc_complex:greeting.hello.cc (null)</title>
<path fill="none" stroke="#000000" d="M548,-71.8314C548,-64.131 548,-54.9743 548,-46.4166"/>
<polygon fill="#000000" stroke="#000000" points="551.5001,-46.4132 548,-36.4133 544.5001,-46.4133 551.5001,-46.4132"/>
</g>
<!-- (null) -->
<g id="node20" class="node">
<title>(null)</title>
<ellipse fill="#000000" stroke="#000000" cx="1547" cy="-453.2132" rx="55.3091" ry="21.4286"/>
<polygon fill="#ffffff" stroke="transparent" points="1516,-442.2132 1516,-464.2132 1578,-464.2132 1578,-442.2132 1516,-442.2132"/>
<polygon fill="none" stroke="#000000" points="1516,-442.2132 1516,-464.2132 1578,-464.2132 1578,-442.2132 1516,-442.2132"/>
<text text-anchor="start" x="1518.8082" y="-448.6132" font-family="Times,serif" font-size="14.00" fill="#000000">null (null)</text>
</g>
</g>
</svg>