<?xml version="1.0" encoding="UTF-8" standalone="no"?>
<!DOCTYPE svg PUBLIC "-//W3C//DTD SVG 1.1//EN" "http://www.w3.org/Graphics/SVG/1.1/DTD/svg11.dtd">
<!-- Generated by graphviz version 2.40.1 (20161225.0304)
 -->
<!-- Title: mygraph Pages: 1 -->
<svg width="1644pt" height="338pt" viewBox="0.00 0.00 1644.23 338.43" xmlns="http://www.w3.org/2000/svg" xmlns:xlink="http://www.w3.org/1999/xlink">
<g id="graph0" class="graph" transform="scale(1 1) rotate(0) translate(4 334.4264)">
<title>mygraph</title>
<polygon fill="#ffffff" stroke="transparent" points="-4,4 -4,-334.4264 1640.229,-334.4264 1640.229,4 -4,4"/>
<!-- //cc_simple:combined (flustered_foundation) -->
<g id="node1" class="node">
<title>//cc_simple:combined (flustered_foundation)</title>
<polygon fill="#db01af" fill-opacity="0.188235" stroke="#000000" points="451.5,-327.2132 306.5,-327.2132 306.5,-291.2132 451.5,-291.2132 451.5,-327.2132"/>
<polygon fill="#ffffff" stroke="transparent" points="315,-298.2132 315,-320.2132 444,-320.2132 444,-298.2132 315,-298.2132"/>
<polygon fill="none" stroke="#000000" points="315,-298.2132 315,-320.2132 444,-320.2132 444,-298.2132 315,-298.2132"/>
<text text-anchor="start" x="317.6788" y="-304.6132" font-family="Times,serif" font-size="14.00" fill="#000000">//cc_simple:combined</text>
</g>
<!-- //cc_simple:rhel8x64/main (flustered_foundation) -->
<g id="node3" class="node">
<title>//cc_simple:rhel8x64/main (flustered_foundation)</title>
<polygon fill="#db01af" fill-opacity="0.188235" stroke="#000000" points="228,-252 56,-252 56,-216 228,-216 228,-252"/>
<polygon fill="#ffffff" stroke="transparent" points="64,-223 64,-245 220,-245 220,-223 64,-223"/>
<polygon fill="none" stroke="#000000" points="64,-223 64,-245 220,-245 220,-223 64,-223"/>
<text text-anchor="start" x="66.9579" y="-229.4" font-family="Times,serif" font-size="14.00" fill="#000000">//cc_simple:rhel8x64/main</text>
</g>
<!-- //cc_simple:combined (flustered_foundation)&#45;&gt;//cc_simple:rhel8x64/main (flustered_foundation) -->
<g id="edge1" class="edge">
<title>//cc_simple:combined (flustered_foundation)-&gt;//cc_simple:rhel8x64/main (flustered_foundation)</title>
<path fill="none" stroke="#000000" d="M322.2326,-291.1978C288.1854,-280.3927 244.7051,-266.594 208.9815,-255.2569"/>
<polygon fill="#000000" stroke="#000000" points="209.7159,-251.818 199.1256,-252.1291 207.5984,-258.4901 209.7159,-251.818"/>
</g>
<!-- //cc_simple:wrl18ppce6500/main (flustered_foundation) -->
<g id="node4" class="node">
<title>//cc_simple:wrl18ppce6500/main (flustered_foundation)</title>
<polygon fill="#db01af" fill-opacity="0.188235" stroke="#000000" points="483.5,-252 274.5,-252 274.5,-216 483.5,-216 483.5,-252"/>
<polygon fill="#ffffff" stroke="transparent" points="283,-223 283,-245 476,-245 476,-223 283,-223"/>
<polygon fill="none" stroke="#000000" points="283,-223 283,-245 476,-245 476,-223 283,-223"/>
<text text-anchor="start" x="285.7973" y="-229.4" font-family="Times,serif" font-size="14.00" fill="#000000">//cc_simple:wrl18ppce6500/main</text>
</g>
<!-- //cc_simple:combined (flustered_foundation)&#45;&gt;//cc_simple:wrl18ppce6500/main (flustered_foundation) -->
<g id="edge2" class="edge">
<title>//cc_simple:combined (flustered_foundation)-&gt;//cc_simple:wrl18ppce6500/main (flustered_foundation)</title>
<path fill="none" stroke="#000000" d="M379,-291.0062C379,-282.3219 379,-271.737 379,-262.0563"/>
<polygon fill="#000000" stroke="#000000" points="382.5001,-262.0393 379,-252.0393 375.5001,-262.0394 382.5001,-262.0393"/>
</g>
<!-- //cc_simple:wrl6x64/main (flustered_foundation) -->
<g id="node5" class="node">
<title>//cc_simple:wrl6x64/main (flustered_foundation)</title>
<polygon fill="#db01af" fill-opacity="0.188235" stroke="#000000" points="698,-252 530,-252 530,-216 698,-216 698,-252"/>
<polygon fill="#ffffff" stroke="transparent" points="538,-223 538,-245 690,-245 690,-223 538,-223"/>
<polygon fill="none" stroke="#000000" points="538,-223 538,-245 690,-245 690,-223 538,-223"/>
<text text-anchor="start" x="540.5119" y="-229.4" font-family="Times,serif" font-size="14.00" fill="#000000">//cc_simple:wrl6x64/main</text>
</g>
<!-- //cc_simple:combined (flustered_foundation)&#45;&gt;//cc_simple:wrl6x64/main (flustered_foundation) -->
<g id="edge3" class="edge">
<title>//cc_simple:combined (flustered_foundation)-&gt;//cc_simple:wrl6x64/main (flustered_foundation)</title>
<path fill="none" stroke="#000000" d="M435.2884,-291.1978C469.0483,-280.3927 512.1616,-266.594 547.5837,-255.2569"/>
<polygon fill="#000000" stroke="#000000" points="548.8993,-258.5109 557.3565,-252.1291 546.7655,-251.844 548.8993,-258.5109"/>
</g>
<!-- (flustered_foundation) -->
<g id="node2" class="node">
<title>(flustered_foundation)</title>
<ellipse fill="#db01af" fill-opacity="0.188235" stroke="#000000" cx="609" cy="-309.2132" rx="139.1004" ry="21.4286"/>
<polygon fill="#ffffff" stroke="transparent" points="519,-298.2132 519,-320.2132 700,-320.2132 700,-298.2132 519,-298.2132"/>
<polygon fill="none" stroke="#000000" points="519,-298.2132 519,-320.2132 700,-320.2132 700,-298.2132 519,-298.2132"/>
<text text-anchor="start" x="521.8355" y="-304.6132" font-family="Times,serif" font-size="14.00" fill="#000000">db01af3 (flustered_foundation)</text>
</g>
<!-- //cc_simple:rhel8x64/main_with_cfg (flustered_foundation) -->
<g id="node15" class="node">
<title>//cc_simple:rhel8x64/main_with_cfg (flustered_foundation)</title>
<polygon fill="#db01af" fill-opacity="0.188235" stroke="#000000" points="228,-180 0,-180 0,-144 228,-144 228,-180"/>
<polygon fill="#ffffff" stroke="transparent" points="8,-151 8,-173 220,-173 220,-151 8,-151"/>
<polygon fill="none" stroke="#000000" points="8,-151 8,-173 220,-173 220,-151 8,-151"/>
<text text-anchor="start" x="10.5764" y="-157.4" font-family="Times,serif" font-size="14.00" fill="#000000">//cc_simple:rhel8x64/main_with_cfg</text>
</g>
<!-- //cc_simple:rhel8x64/main (flustered_foundation)&#45;&gt;//cc_simple:rhel8x64/main_with_cfg (flustered_foundation) -->
<g id="edge10" class="edge">
<title>//cc_simple:rhel8x64/main (flustered_foundation)-&gt;//cc_simple:rhel8x64/main_with_cfg (flustered_foundation)</title>
<path fill="none" stroke="#000000" d="M134.9344,-215.8314C131.874,-207.9617 128.2221,-198.5712 124.8318,-189.8533"/>
<polygon fill="#000000" stroke="#000000" points="128.0473,-188.4647 121.1607,-180.4133 121.5232,-191.0019 128.0473,-188.4647"/>
</g>
<!-- //cc_simple:wrl18ppce6500/main_with_cfg (flustered_foundation) -->
<g id="node10" class="node">
<title>//cc_simple:wrl18ppce6500/main_with_cfg (flustered_foundation)</title>
<polygon fill="#db01af" fill-opacity="0.188235" stroke="#000000" points="512,-180 246,-180 246,-144 512,-144 512,-180"/>
<polygon fill="#ffffff" stroke="transparent" points="254,-151 254,-173 504,-173 504,-151 254,-151"/>
<polygon fill="none" stroke="#000000" points="254,-151 254,-173 504,-173 504,-151 254,-151"/>
<text text-anchor="start" x="256.9158" y="-157.4" font-family="Times,serif" font-size="14.00" fill="#000000">//cc_simple:wrl18ppce6500/main_with_cfg</text>
</g>
<!-- //cc_simple:wrl18ppce6500/main (flustered_foundation)&#45;&gt;//cc_simple:wrl18ppce6500/main_with_cfg (flustered_foundation) -->
<g id="edge7" class="edge">
<title>//cc_simple:wrl18ppce6500/main (flustered_foundation)-&gt;//cc_simple:wrl18ppce6500/main_with_cfg (flustered_foundation)</title>
<path fill="none" stroke="#000000" d="M379,-215.8314C379,-208.131 379,-198.9743 379,-190.4166"/>
<polygon fill="#000000" stroke="#000000" points="382.5001,-190.4132 379,-180.4133 375.5001,-190.4133 382.5001,-190.4132"/>
</g>
<!-- //cc_simple:wrl6x64/main_with_cfg (flustered_foundation) -->
<g id="node6" class="node">
<title>//cc_simple:wrl6x64/main_with_cfg (flustered_foundation)</title>
<polygon fill="#db01af" fill-opacity="0.188235" stroke="#000000" points="755.5,-180 530.5,-180 530.5,-144 755.5,-144 755.5,-180"/>
<polygon fill="#ffffff" stroke="transparent" points="539,-151 539,-173 748,-173 748,-151 539,-151"/>
<polygon fill="none" stroke="#000000" points="539,-151 539,-173 748,-173 748,-151 539,-151"/>
<text text-anchor="start" x="541.6304" y="-157.4" font-family="Times,serif" font-size="14.00" fill="#000000">//cc_simple:wrl6x64/main_with_cfg</text>
</g>
<!-- //cc_simple:wrl6x64/main (flustered_foundation)&#45;&gt;//cc_simple:wrl6x64/main_with_cfg (flustered_foundation) -->
<g id="edge4" class="edge">
<title>//cc_simple:wrl6x64/main (flustered_foundation)-&gt;//cc_simple:wrl6x64/main_with_cfg (flustered_foundation)</title>
<path fill="none" stroke="#000000" d="M621.3179,-215.8314C624.4876,-207.9617 628.27,-198.5712 631.7813,-189.8533"/>
<polygon fill="#000000" stroke="#000000" points="635.0939,-190.9968 635.5835,-180.4133 628.6008,-188.3815 635.0939,-190.9968"/>
</g>
<!-- //cc_simple:wrl6x64/main_/main (enraged_hubris) -->
<g id="node7" class="node">
<title>//cc_simple:wrl6x64/main_/main (enraged_hubris)</title>
<polygon fill="#5acfff" fill-opacity="0.125490" stroke="#000000" points="746.5,-108 539.5,-108 539.5,-72 746.5,-72 746.5,-108"/>
<polygon fill="#ffffff" stroke="transparent" points="548,-79 548,-101 739,-101 739,-79 548,-79"/>
<polygon fill="none" stroke="#000000" points="548,-79 548,-101 739,-101 739,-79 548,-79"/>
<text text-anchor="start" x="550.5687" y="-85.4" font-family="Times,serif" font-size="14.00" fill="#000000">//cc_simple:wrl6x64/main_/main</text>
</g>
<!-- //cc_simple:wrl6x64/main_with_cfg (flustered_foundation)&#45;&gt;//cc_simple:wrl6x64/main_/main (enraged_hubris) -->
<g id="edge5" class="edge">
<title>//cc_simple:wrl6x64/main_with_cfg (flustered_foundation)-&gt;//cc_simple:wrl6x64/main_/main (enraged_hubris)</title>
<path fill="none" stroke="#000000" d="M643,-143.8314C643,-136.131 643,-126.9743 643,-118.4166"/>
<polygon fill="#000000" stroke="#000000" points="646.5001,-118.4132 643,-108.4133 639.5001,-118.4133 646.5001,-118.4132"/>
</g>
<!-- //cc_simple:bye&#45;world.cc (null) -->
<g id="node9" class="node">
<title>//cc_simple:bye-world.cc (null)</title>
<polygon fill="#000000" stroke="#000000" points="724.5,-36 561.5,-36 561.5,0 724.5,0 724.5,-36"/>
<polygon fill="#ffffff" stroke="transparent" points="570,-7 570,-29 717,-29 717,-7 570,-7"/>
<polygon fill="none" stroke="#000000" points="570,-7 570,-29 717,-29 717,-7 570,-7"/>
<text text-anchor="start" x="572.5529" y="-13.4" font-family="Times,serif" font-size="14.00" fill="#000000">//cc_simple:bye-world.cc</text>
</g>
<!-- //cc_simple:wrl6x64/main_/main (enraged_hubris)&#45;&gt;//cc_simple:bye&#45;world.cc (null) -->
<g id="edge6" class="edge">
<title>//cc_simple:wrl6x64/main_/main (enraged_hubris)-&gt;//cc_simple:bye-world.cc (null)</title>
<path fill="none" stroke="#000000" d="M643,-71.8314C643,-64.131 643,-54.9743 643,-46.4166"/>
<polygon fill="#000000" stroke="#000000" points="646.5001,-46.4132 643,-36.4133 639.5001,-46.4133 646.5001,-46.4132"/>
</g>
<!-- (enraged_hubris) -->
<g id="node8" class="node">
<title>(enraged_hubris)</title>
<ellipse fill="#5acfff" fill-opacity="0.125490" stroke="#000000" cx="880" cy="-309.2132" rx="113.6886" ry="21.4286"/>
<polygon fill="#ffffff" stroke="transparent" points="808,-298.2132 808,-320.2132 953,-320.2132 953,-298.2132 808,-298.2132"/>
<polygon fill="none" stroke="#000000" points="808,-298.2132 808,-320.2132 953,-320.2132 953,-298.2132 808,-298.2132"/>
<text text-anchor="start" x="810.7338" y="-304.6132" font-family="Times,serif" font-size="14.00" fill="#000000">5acfff2 (enraged_hubris)</text>
</g>
<!-- //cc_simple:wrl18ppce6500/main_/main (paltry_party) -->
<g id="node11" class="node">
<title>//cc_simple:wrl18ppce6500/main_/main (paltry_party)</title>
<polygon fill="#e7b533" fill-opacity="0.250980" stroke="#000000" points="503,-108 255,-108 255,-72 503,-72 503,-108"/>
<polygon fill="#ffffff" stroke="transparent" points="263,-79 263,-101 495,-101 495,-79 263,-79"/>
<polygon fill="none" stroke="#000000" points="263,-79 263,-101 495,-101 495,-79 263,-79"/>
<text text-anchor="start" x="265.8541" y="-85.4" font-family="Times,serif" font-size="14.00" fill="#000000">//cc_simple:wrl18ppce6500/main_/main</text>
</g>
<!-- //cc_simple:wrl18ppce6500/main_with_cfg (flustered_foundation)&#45;&gt;//cc_simple:wrl18ppce6500/main_/main (paltry_party) -->
<g id="edge8" class="edge">
<title>//cc_simple:wrl18ppce6500/main_with_cfg (flustered_foundation)-&gt;//cc_simple:wrl18ppce6500/main_/main (paltry_party)</title>
<path fill="none" stroke="#000000" d="M379,-143.8314C379,-136.131 379,-126.9743 379,-118.4166"/>
<polygon fill="#000000" stroke="#000000" points="382.5001,-118.4132 379,-108.4133 375.5001,-118.4133 382.5001,-118.4132"/>
</g>
<!-- //cc_simple:hey&#45;world.cc (null) -->
<g id="node13" class="node">
<title>//cc_simple:hey-world.cc (null)</title>
<polygon fill="#000000" stroke="#000000" points="460.5,-36 297.5,-36 297.5,0 460.5,0 460.5,-36"/>
<polygon fill="#ffffff" stroke="transparent" points="306,-7 306,-29 453,-29 453,-7 306,-7"/>
<polygon fill="none" stroke="#000000" points="306,-7 306,-29 453,-29 453,-7 306,-7"/>
<text text-anchor="start" x="308.5529" y="-13.4" font-family="Times,serif" font-size="14.00" fill="#000000">//cc_simple:hey-world.cc</text>
</g>
<!-- //cc_simple:wrl18ppce6500/main_/main (paltry_party)&#45;&gt;//cc_simple:hey&#45;world.cc (null) -->
<g id="edge9" class="edge">
<title>//cc_simple:wrl18ppce6500/main_/main (paltry_party)-&gt;//cc_simple:hey-world.cc (null)</title>
<path fill="none" stroke="#000000" d="M379,-71.8314C379,-64.131 379,-54.9743 379,-46.4166"/>
<polygon fill="#000000" stroke="#000000" points="382.5001,-46.4132 379,-36.4133 375.5001,-46.4133 382.5001,-46.4132"/>
</g>
<!-- (paltry_party) -->
<g id="node12" class="node">
<title>(paltry_party)</title>
<ellipse fill="#e7b533" fill-opacity="0.250980" stroke="#000000" cx="1119" cy="-309.2132" rx="106.5467" ry="21.4286"/>
<polygon fill="#ffffff" stroke="transparent" points="1052,-298.2132 1052,-320.2132 1187,-320.2132 1187,-298.2132 1052,-298.2132"/>
<polygon fill="none" stroke="#000000" points="1052,-298.2132 1052,-320.2132 1187,-320.2132 1187,-298.2132 1052,-298.2132"/>
<text text-anchor="start" x="1054.771" y="-304.6132" font-family="Times,serif" font-size="14.00" fill="#000000">e7b5334 (paltry_party)</text>
</g>
<!-- (null) -->
<g id="node14" class="node">
<title>(null)</title>
<ellipse fill="#000000" stroke="#000000" cx="1299" cy="-309.2132" rx="55.3091" ry="21.4286"/>
<polygon fill="#ffffff" stroke="transparent" points="1268,-298.2132 1268,-320.2132 1330,-320.2132 1330,-298.2132 1268,-298.2132"/>
<polygon fill="none" stroke="#000000" points="1268,-298.2132 1268,-320.2132 1330,-320.2132 1330,-298.2132 1268,-298.2132"/>
<text text-anchor="start" x="1270.8082" y="-304.6132" font-family="Times,serif" font-size="14.00" fill="#000000">null (null)</text>
</g>
<!-- //cc_simple:rhel8x64/main_/main (fumbling_mankind) -->
<g id="node16" class="node">
<title>//cc_simple:rhel8x64/main_/main (fumbling_mankind)</title>
<polygon fill="#9cf19a" fill-opacity="0.501961" stroke="#000000" points="219,-108 9,-108 9,-72 219,-72 219,-108"/>
<polygon fill="#ffffff" stroke="transparent" points="17,-79 17,-101 211,-101 211,-79 17,-79"/>
<polygon fill="none" stroke="#000000" points="17,-79 17,-101 211,-101 211,-79 17,-79"/>
<text text-anchor="start" x="19.5147" y="-85.4" font-family="Times,serif" font-size="14.00" fill="#000000">//cc_simple:rhel8x64/main_/main</text>
</g>
<!-- //cc_simple:rhel8x64/main_with_cfg (flustered_foundation)&#45;&gt;//cc_simple:rhel8x64/main_/main (fumbling_mankind) -->
<g id="edge11" class="edge">
<title>//cc_simple:rhel8x64/main_with_cfg (flustered_foundation)-&gt;//cc_simple:rhel8x64/main_/main (fumbling_mankind)</title>
<path fill="none" stroke="#000000" d="M114,-143.8314C114,-136.131 114,-126.9743 114,-118.4166"/>
<polygon fill="#000000" stroke="#000000" points="117.5001,-118.4132 114,-108.4133 110.5001,-118.4133 117.5001,-118.4132"/>
</g>
<!-- //cc_simple:hello&#45;world.cc (null) -->
<g id="node18" class="node">
<title>//cc_simple:hello-world.cc (null)</title>
<polygon fill="#000000" stroke="#000000" points="199.5,-36 28.5,-36 28.5,0 199.5,0 199.5,-36"/>
<polygon fill="#ffffff" stroke="transparent" points="37,-7 37,-29 192,-29 192,-7 37,-7"/>
<polygon fill="none" stroke="#000000" points="37,-7 37,-29 192,-29 192,-7 37,-7"/>
<text text-anchor="start" x="39.6623" y="-13.4" font-family="Times,serif" font-size="14.00" fill="#000000">//cc_simple:hello-world.cc</text>
</g>
<!-- //cc_simple:rhel8x64/main_/main (fumbling_mankind)&#45;&gt;//cc_simple:hello&#45;world.cc (null) -->
<g id="edge12" class="edge">
<title>//cc_simple:rhel8x64/main_/main (fumbling_mankind)-&gt;//cc_simple:hello-world.cc (null)</title>
<path fill="none" stroke="#000000" d="M114,-71.8314C114,-64.131 114,-54.9743 114,-46.4166"/>
<polygon fill="#000000" stroke="#000000" points="117.5001,-46.4132 114,-36.4133 110.5001,-46.4133 117.5001,-46.4132"/>
</g>
<!-- (fumbling_mankind) -->
<g id="node17" class="node">
<title>(fumbling_mankind)</title>
<ellipse fill="#9cf19a" fill-opacity="0.501961" stroke="#000000" cx="1504" cy="-309.2132" rx="132.4583" ry="21.4286"/>
<polygon fill="#ffffff" stroke="transparent" points="1419,-298.2132 1419,-320.2132 1590,-320.2132 1590,-298.2132 1419,-298.2132"/>
<polygon fill="none" stroke="#000000" points="1419,-298.2132 1419,-320.2132 1590,-320.2132 1590,-298.2132 1419,-298.2132"/>
<text text-anchor="start" x="1421.8804" y="-304.6132" font-family="Times,serif" font-size="14.00" fill="#000000">9cf19a8 (fumbling_mankind)</text>
</g>
</g>
</svg>