<?xml version="1.0" encoding="UTF-8" standalone="no"?>
<!DOCTYPE svg PUBLIC "-//W3C//DTD SVG 1.1//EN" "http://www.w3.org/Graphics/SVG/1.1/DTD/svg11.dtd">
<!-- Generated by graphviz version 2.40.1 (20161225.0304)
 -->
<!-- Title: mygraph Pages: 1 -->
<svg width="933pt" height="614pt" viewBox="0.00 0.00 933.39 614.21" xmlns="http://www.w3.org/2000/svg" xmlns:xlink="http://www.w3.org/1999/xlink">
<g id="graph0" class="graph" transform="scale(1 1) rotate(0) translate(4 610.2132)">
<title>mygraph</title>
<polygon fill="#ffffff" stroke="transparent" points="-4,4 -4,-610.2132 929.3869,-610.2132 929.3869,4 -4,4"/>
<!-- (rotating_shade) -->
<g id="node1" class="node">
<title>(rotating_shade)</title>
<ellipse fill="#9af943" fill-opacity="0.125490" stroke="#000000" cx="128.6934" cy="-21.2132" rx="115.0173" ry="21.4286"/>
<polygon fill="#ffffff" stroke="transparent" points="55.6934,-10.2132 55.6934,-32.2132 202.6934,-32.2132 202.6934,-10.2132 55.6934,-10.2132"/>
<polygon fill="none" stroke="#000000" points="55.6934,-10.2132 55.6934,-32.2132 202.6934,-32.2132 202.6934,-10.2132 55.6934,-10.2132"/>
<text text-anchor="start" x="58.6348" y="-16.6132" font-family="Times,serif" font-size="14.00" fill="#000000">9af9432 (rotating_shade)</text>
</g>
<!-- (hideous_liar) -->
<g id="node2" class="node">
<title>(hideous_liar)</title>
<ellipse fill="#33bc33" fill-opacity="0.564706" stroke="#000000" cx="128.6934" cy="-81.2132" rx="107.4605" ry="21.4286"/>
<polygon fill="#ffffff" stroke="transparent" points="60.6934,-70.2132 60.6934,-92.2132 196.6934,-92.2132 196.6934,-70.2132 60.6934,-70.2132"/>
<polygon fill="none" stroke="#000000" points="60.6934,-70.2132 60.6934,-92.2132 196.6934,-92.2132 196.6934,-70.2132 60.6934,-70.2132"/>
<text text-anchor="start" x="63.5724" y="-76.6132" font-family="Times,serif" font-size="14.00" fill="#000000">33bc339 (hideous_liar)</text>
</g>
<!-- (unwilling_con) -->
<g id="node3" class="node">
<title>(unwilling_con)</title>
<ellipse fill="#22acd1" fill-opacity="0.627451" stroke="#000000" cx="128.6934" cy="-141.2132" rx="114.6026" ry="21.4286"/>
<polygon fill="#ffffff" stroke="transparent" points="55.6934,-130.2132 55.6934,-152.2132 201.6934,-152.2132 201.6934,-130.2132 55.6934,-130.2132"/>
<polygon fill="none" stroke="#000000" points="55.6934,-130.2132 55.6934,-152.2132 201.6934,-152.2132 201.6934,-130.2132 55.6934,-130.2132"/>
<text text-anchor="start" x="58.5191" y="-136.6132" font-family="Times,serif" font-size="14.00" fill="#000000">22acd1a (unwilling_con)</text>
</g>
<!-- (homely_vendor) -->
<g id="node4" class="node">
<title>(homely_vendor)</title>
<ellipse fill="#d02c21" fill-opacity="0.501961" stroke="#000000" cx="128.6934" cy="-201.2132" rx="120.4167" ry="21.4286"/>
<polygon fill="#ffffff" stroke="transparent" points="51.6934,-190.2132 51.6934,-212.2132 205.6934,-212.2132 205.6934,-190.2132 51.6934,-190.2132"/>
<polygon fill="none" stroke="#000000" points="51.6934,-190.2132 51.6934,-212.2132 205.6934,-212.2132 205.6934,-190.2132 51.6934,-190.2132"/>
<text text-anchor="start" x="54.24" y="-196.6132" font-family="Times,serif" font-size="14.00" fill="#000000">d02c218 (homely_vendor)</text>
</g>
<!-- (concerned_pianist) -->
<g id="node5" class="node">
<title>(concerned_pianist)</title>
<ellipse fill="#a44111" fill-opacity="0.941176" stroke="#000000" cx="128.6934" cy="-261.2132" rx="128.8872" ry="21.4286"/>
<polygon fill="#ffffff" stroke="transparent" points="45.6934,-250.2132 45.6934,-272.2132 211.6934,-272.2132 211.6934,-250.2132 45.6934,-250.2132"/>
<polygon fill="none" stroke="#000000" points="45.6934,-250.2132 45.6934,-272.2132 211.6934,-272.2132 211.6934,-250.2132 45.6934,-250.2132"/>
<text text-anchor="start" x="48.4202" y="-256.6132" font-family="Times,serif" font-size="14.00" fill="#000000">a44111f (concerned_pianist)</text>
</g>
<!-- //print_info:wrl6x64_dbg/triple (homely_vendor) -->
<g id="node6" class="node">
<title>//print_info:wrl6x64_dbg/triple (homely_vendor)</title>
<polygon fill="#d02c21" fill-opacity="0.501961" stroke="#000000" points="227.1934,-336.2132 30.1934,-336.2132 30.1934,-300.2132 227.1934,-300.2132 227.1934,-336.2132"/>
<polygon fill="#ffffff" stroke="transparent" points="38.6934,-307.2132 38.6934,-329.2132 219.6934,-329.2132 219.6934,-307.2132 38.6934,-307.2132"/>
<polygon fill="none" stroke="#000000" points="38.6934,-307.2132 38.6934,-329.2132 219.6934,-329.2132 219.6934,-307.2132 38.6934,-307.2132"/>
<text text-anchor="start" x="41.3133" y="-313.6132" font-family="Times,serif" font-size="14.00" fill="#000000">//print_info:wrl6x64_dbg/triple</text>
</g>
<!-- //print_info:wrl6x64_dbg/triple_with_cfg (hideous_liar) -->
<g id="node7" class="node">
<title>//print_info:wrl6x64_dbg/triple_with_cfg (hideous_liar)</title>
<polygon fill="#33bc33" fill-opacity="0.564706" stroke="#000000" points="571.3869,-336.2132 317.3869,-336.2132 317.3869,-300.2132 571.3869,-300.2132 571.3869,-336.2132"/>
<polygon fill="#ffffff" stroke="transparent" points="325.3869,-307.2132 325.3869,-329.2132 563.3869,-329.2132 563.3869,-307.2132 325.3869,-307.2132"/>
<polygon fill="none" stroke="#000000" points="325.3869,-307.2132 325.3869,-329.2132 563.3869,-329.2132 563.3869,-307.2132 325.3869,-307.2132"/>
<text text-anchor="start" x="328.1253" y="-313.6132" font-family="Times,serif" font-size="14.00" fill="#000000">//print_info:wrl6x64_dbg/triple_with_cfg</text>
</g>
<!-- //print_info:wrl6x64_dbg/triple (homely_vendor)&#45;&gt;//print_info:wrl6x64_dbg/triple_with_cfg (hideous_liar) -->
<g id="edge1" class="edge">
<title>//print_info:wrl6x64_dbg/triple (homely_vendor)-&gt;//print_info:wrl6x64_dbg/triple_with_cfg (hideous_liar)</title>
<path fill="none" stroke="#000000" d="M227.2822,-318.2132C252.5484,-318.2132 280.1842,-318.2132 307.017,-318.2132"/>
<polygon fill="#000000" stroke="#000000" points="307.255,-321.7133 317.255,-318.2132 307.255,-314.7133 307.255,-321.7133"/>
</g>
<!-- //print_info:wrl6x64_dbg/triple_/triple (unwilling_con) -->
<g id="node8" class="node">
<title>//print_info:wrl6x64_dbg/triple_/triple (unwilling_con)</title>
<polygon fill="#22acd1" fill-opacity="0.627451" stroke="#000000" points="897.3869,-336.2132 659.3869,-336.2132 659.3869,-300.2132 897.3869,-300.2132 897.3869,-336.2132"/>
<polygon fill="#ffffff" stroke="transparent" points="667.3869,-307.2132 667.3869,-329.2132 889.3869,-329.2132 889.3869,-307.2132 667.3869,-307.2132"/>
<polygon fill="none" stroke="#000000" points="667.3869,-307.2132 667.3869,-329.2132 889.3869,-329.2132 889.3869,-307.2132 667.3869,-307.2132"/>
<text text-anchor="start" x="670.288" y="-313.6132" font-family="Times,serif" font-size="14.00" fill="#000000">//print_info:wrl6x64_dbg/triple_/triple</text>
</g>
<!-- //print_info:wrl6x64_dbg/triple_with_cfg (hideous_liar)&#45;&gt;//print_info:wrl6x64_dbg/triple_/triple (unwilling_con) -->
<g id="edge2" class="edge">
<title>//print_info:wrl6x64_dbg/triple_with_cfg (hideous_liar)-&gt;//print_info:wrl6x64_dbg/triple_/triple (unwilling_con)</title>
<path fill="none" stroke="#000000" d="M571.6107,-318.2132C596.9995,-318.2132 623.6905,-318.2132 649.1463,-318.2132"/>
<polygon fill="#000000" stroke="#000000" points="649.2124,-321.7133 659.2124,-318.2132 649.2124,-314.7133 649.2124,-321.7133"/>
</g>
<!-- //print_info:wrl6x64_dbg/single (homely_vendor) -->
<g id="node9" class="node">
<title>//print_info:wrl6x64_dbg/single (homely_vendor)</title>
<polygon fill="#d02c21" fill-opacity="0.501961" stroke="#000000" points="229.1934,-390.2132 28.1934,-390.2132 28.1934,-354.2132 229.1934,-354.2132 229.1934,-390.2132"/>
<polygon fill="#ffffff" stroke="transparent" points="36.6934,-361.2132 36.6934,-383.2132 221.6934,-383.2132 221.6934,-361.2132 36.6934,-361.2132"/>
<polygon fill="none" stroke="#000000" points="36.6934,-361.2132 36.6934,-383.2132 221.6934,-383.2132 221.6934,-361.2132 36.6934,-361.2132"/>
<text text-anchor="start" x="39.3666" y="-367.6132" font-family="Times,serif" font-size="14.00" fill="#000000">//print_info:wrl6x64_dbg/single</text>
</g>
<!-- //print_info:wrl6x64_dbg/single_with_cfg (hideous_liar) -->
<g id="node10" class="node">
<title>//print_info:wrl6x64_dbg/single_with_cfg (hideous_liar)</title>
<polygon fill="#33bc33" fill-opacity="0.564706" stroke="#000000" points="573.3869,-390.2132 315.3869,-390.2132 315.3869,-354.2132 573.3869,-354.2132 573.3869,-390.2132"/>
<polygon fill="#ffffff" stroke="transparent" points="323.3869,-361.2132 323.3869,-383.2132 565.3869,-383.2132 565.3869,-361.2132 323.3869,-361.2132"/>
<polygon fill="none" stroke="#000000" points="323.3869,-361.2132 323.3869,-383.2132 565.3869,-383.2132 565.3869,-361.2132 323.3869,-361.2132"/>
<text text-anchor="start" x="326.1786" y="-367.6132" font-family="Times,serif" font-size="14.00" fill="#000000">//print_info:wrl6x64_dbg/single_with_cfg</text>
</g>
<!-- //print_info:wrl6x64_dbg/single (homely_vendor)&#45;&gt;//print_info:wrl6x64_dbg/single_with_cfg (hideous_liar) -->
<g id="edge3" class="edge">
<title>//print_info:wrl6x64_dbg/single (homely_vendor)-&gt;//print_info:wrl6x64_dbg/single_with_cfg (hideous_liar)</title>
<path fill="none" stroke="#000000" d="M229.4488,-372.2132C253.5035,-372.2132 279.6025,-372.2132 305.0508,-372.2132"/>
<polygon fill="#000000" stroke="#000000" points="305.1444,-375.7133 315.1444,-372.2132 305.1443,-368.7133 305.1444,-375.7133"/>
</g>
<!-- //print_info:wrl6x64_dbg/single_/single (unwilling_con) -->
<g id="node11" class="node">
<title>//print_info:wrl6x64_dbg/single_/single (unwilling_con)</title>
<polygon fill="#22acd1" fill-opacity="0.627451" stroke="#000000" points="900.8869,-390.2132 655.8869,-390.2132 655.8869,-354.2132 900.8869,-354.2132 900.8869,-390.2132"/>
<polygon fill="#ffffff" stroke="transparent" points="664.3869,-361.2132 664.3869,-383.2132 893.3869,-383.2132 893.3869,-361.2132 664.3869,-361.2132"/>
<polygon fill="none" stroke="#000000" points="664.3869,-361.2132 664.3869,-383.2132 893.3869,-383.2132 893.3869,-361.2132 664.3869,-361.2132"/>
<text text-anchor="start" x="666.8946" y="-367.6132" font-family="Times,serif" font-size="14.00" fill="#000000">//print_info:wrl6x64_dbg/single_/single</text>
</g>
<!-- //print_info:wrl6x64_dbg/single_with_cfg (hideous_liar)&#45;&gt;//print_info:wrl6x64_dbg/single_/single (unwilling_con) -->
<g id="edge4" class="edge">
<title>//print_info:wrl6x64_dbg/single_with_cfg (hideous_liar)-&gt;//print_info:wrl6x64_dbg/single_/single (unwilling_con)</title>
<path fill="none" stroke="#000000" d="M573.52,-372.2132C597.1316,-372.2132 621.8093,-372.2132 645.5272,-372.2132"/>
<polygon fill="#000000" stroke="#000000" points="645.6275,-375.7133 655.6274,-372.2132 645.6274,-368.7133 645.6275,-375.7133"/>
</g>
<!-- //print_info:wrl6x64_dbg/double (homely_vendor) -->
<g id="node12" class="node">
<title>//print_info:wrl6x64_dbg/double (homely_vendor)</title>
<polygon fill="#d02c21" fill-opacity="0.501961" stroke="#000000" points="231.6934,-444.2132 25.6934,-444.2132 25.6934,-408.2132 231.6934,-408.2132 231.6934,-444.2132"/>
<polygon fill="#ffffff" stroke="transparent" points="33.6934,-415.2132 33.6934,-437.2132 223.6934,-437.2132 223.6934,-415.2132 33.6934,-415.2132"/>
<polygon fill="none" stroke="#000000" points="33.6934,-415.2132 33.6934,-437.2132 223.6934,-437.2132 223.6934,-415.2132 33.6934,-415.2132"/>
<text text-anchor="start" x="36.5342" y="-421.6132" font-family="Times,serif" font-size="14.00" fill="#000000">//print_info:wrl6x64_dbg/double</text>
</g>
<!-- //print_info:wrl6x64_dbg/double_with_cfg (hideous_liar) -->
<g id="node13" class="node">
<title>//print_info:wrl6x64_dbg/double_with_cfg (hideous_liar)</title>
<polygon fill="#33bc33" fill-opacity="0.564706" stroke="#000000" points="575.8869,-444.2132 312.8869,-444.2132 312.8869,-408.2132 575.8869,-408.2132 575.8869,-444.2132"/>
<polygon fill="#ffffff" stroke="transparent" points="321.3869,-415.2132 321.3869,-437.2132 568.3869,-437.2132 568.3869,-415.2132 321.3869,-415.2132"/>
<polygon fill="none" stroke="#000000" points="321.3869,-415.2132 321.3869,-437.2132 568.3869,-437.2132 568.3869,-415.2132 321.3869,-415.2132"/>
<text text-anchor="start" x="324.3462" y="-421.6132" font-family="Times,serif" font-size="14.00" fill="#000000">//print_info:wrl6x64_dbg/double_with_cfg</text>
</g>
<!-- //print_info:wrl6x64_dbg/double (homely_vendor)&#45;&gt;//print_info:wrl6x64_dbg/double_with_cfg (hideous_liar) -->
<g id="edge5" class="edge">
<title>//print_info:wrl6x64_dbg/double (homely_vendor)-&gt;//print_info:wrl6x64_dbg/double_with_cfg (hideous_liar)</title>
<path fill="none" stroke="#000000" d="M232.0633,-426.2132C254.6423,-426.2132 278.9165,-426.2132 302.6963,-426.2132"/>
<polygon fill="#000000" stroke="#000000" points="302.8511,-429.7133 312.8511,-426.2132 302.851,-422.7133 302.8511,-429.7133"/>
</g>
<!-- //print_info:wrl6x64_dbg/double_/double (unwilling_con) -->
<g id="node14" class="node">
<title>//print_info:wrl6x64_dbg/double_/double (unwilling_con)</title>
<polygon fill="#22acd1" fill-opacity="0.627451" stroke="#000000" points="905.8869,-444.2132 650.8869,-444.2132 650.8869,-408.2132 905.8869,-408.2132 905.8869,-444.2132"/>
<polygon fill="#ffffff" stroke="transparent" points="659.3869,-415.2132 659.3869,-437.2132 898.3869,-437.2132 898.3869,-415.2132 659.3869,-415.2132"/>
<polygon fill="none" stroke="#000000" points="659.3869,-415.2132 659.3869,-437.2132 898.3869,-437.2132 898.3869,-415.2132 659.3869,-415.2132"/>
<text text-anchor="start" x="662.2298" y="-421.6132" font-family="Times,serif" font-size="14.00" fill="#000000">//print_info:wrl6x64_dbg/double_/double</text>
</g>
<!-- //print_info:wrl6x64_dbg/double_with_cfg (hideous_liar)&#45;&gt;//print_info:wrl6x64_dbg/double_/double (unwilling_con) -->
<g id="edge6" class="edge">
<title>//print_info:wrl6x64_dbg/double_with_cfg (hideous_liar)-&gt;//print_info:wrl6x64_dbg/double_/double (unwilling_con)</title>
<path fill="none" stroke="#000000" d="M575.9131,-426.2132C597.188,-426.2132 619.2683,-426.2132 640.6849,-426.2132"/>
<polygon fill="#000000" stroke="#000000" points="640.8045,-429.7133 650.8044,-426.2132 640.8044,-422.7133 640.8045,-429.7133"/>
</g>
<!-- //print_info:wrl18ppce6500_dev/triple (homely_vendor) -->
<g id="node15" class="node">
<title>//print_info:wrl18ppce6500_dev/triple (homely_vendor)</title>
<polygon fill="#d02c21" fill-opacity="0.501961" stroke="#000000" points="247.1934,-498.2132 10.1934,-498.2132 10.1934,-462.2132 247.1934,-462.2132 247.1934,-498.2132"/>
<polygon fill="#ffffff" stroke="transparent" points="18.6934,-469.2132 18.6934,-491.2132 239.6934,-491.2132 239.6934,-469.2132 18.6934,-469.2132"/>
<polygon fill="none" stroke="#000000" points="18.6934,-469.2132 18.6934,-491.2132 239.6934,-491.2132 239.6934,-469.2132 18.6934,-469.2132"/>
<text text-anchor="start" x="21.4914" y="-475.6132" font-family="Times,serif" font-size="14.00" fill="#000000">//print_info:wrl18ppce6500_dev/triple</text>
</g>
<!-- //print_info:wrl18ppce6500_dev/triple_with_cfg (hideous_liar) -->
<g id="node16" class="node">
<title>//print_info:wrl18ppce6500_dev/triple_with_cfg (hideous_liar)</title>
<polygon fill="#33bc33" fill-opacity="0.564706" stroke="#000000" points="591.3869,-498.2132 297.3869,-498.2132 297.3869,-462.2132 591.3869,-462.2132 591.3869,-498.2132"/>
<polygon fill="#ffffff" stroke="transparent" points="305.3869,-469.2132 305.3869,-491.2132 583.3869,-491.2132 583.3869,-469.2132 305.3869,-469.2132"/>
<polygon fill="none" stroke="#000000" points="305.3869,-469.2132 305.3869,-491.2132 583.3869,-491.2132 583.3869,-469.2132 305.3869,-469.2132"/>
<text text-anchor="start" x="308.3034" y="-475.6132" font-family="Times,serif" font-size="14.00" fill="#000000">//print_info:wrl18ppce6500_dev/triple_with_cfg</text>
</g>
<!-- //print_info:wrl18ppce6500_dev/triple (homely_vendor)&#45;&gt;//print_info:wrl18ppce6500_dev/triple_with_cfg (hideous_liar) -->
<g id="edge7" class="edge">
<title>//print_info:wrl18ppce6500_dev/triple (homely_vendor)-&gt;//print_info:wrl18ppce6500_dev/triple_with_cfg (hideous_liar)</title>
<path fill="none" stroke="#000000" d="M247.5937,-480.2132C260.5469,-480.2132 273.8733,-480.2132 287.1934,-480.2132"/>
<polygon fill="#000000" stroke="#000000" points="287.372,-483.7133 297.372,-480.2132 287.3719,-476.7133 287.372,-483.7133"/>
</g>
<!-- //print_info:wrl18ppce6500_dev/triple_/triple (concerned_pianist) -->
<g id="node17" class="node">
<title>//print_info:wrl18ppce6500_dev/triple_/triple (concerned_pianist)</title>
<polygon fill="#a44111" fill-opacity="0.941176" stroke="#000000" points="916.8869,-498.2132 639.8869,-498.2132 639.8869,-462.2132 916.8869,-462.2132 916.8869,-498.2132"/>
<polygon fill="#ffffff" stroke="transparent" points="648.3869,-469.2132 648.3869,-491.2132 909.3869,-491.2132 909.3869,-469.2132 648.3869,-469.2132"/>
<polygon fill="none" stroke="#000000" points="648.3869,-469.2132 648.3869,-491.2132 909.3869,-491.2132 909.3869,-469.2132 648.3869,-469.2132"/>
<text text-anchor="start" x="650.9661" y="-475.6132" font-family="Times,serif" font-size="14.00" fill="#000000">//print_info:wrl18ppce6500_dev/triple_/triple</text>
</g>
<!-- //print_info:wrl18ppce6500_dev/triple_with_cfg (hideous_liar)&#45;&gt;//print_info:wrl18ppce6500_dev/triple_/triple (concerned_pianist) -->
<g id="edge8" class="edge">
<title>//print_info:wrl18ppce6500_dev/triple_with_cfg (hideous_liar)-&gt;//print_info:wrl18ppce6500_dev/triple_/triple (concerned_pianist)</title>
<path fill="none" stroke="#000000" d="M591.8564,-480.2132C604.4045,-480.2132 617.1018,-480.2132 629.6596,-480.2132"/>
<polygon fill="#000000" stroke="#000000" points="629.6953,-483.7133 639.6953,-480.2132 629.6952,-476.7133 629.6953,-483.7133"/>
</g>
<!-- //print_info:wrl18ppce6500_dev/double (homely_vendor) -->
<g id="node18" class="node">
<title>//print_info:wrl18ppce6500_dev/double (homely_vendor)</title>
<polygon fill="#d02c21" fill-opacity="0.501961" stroke="#000000" points="251.1934,-552.2132 6.1934,-552.2132 6.1934,-516.2132 251.1934,-516.2132 251.1934,-552.2132"/>
<polygon fill="#ffffff" stroke="transparent" points="14.6934,-523.2132 14.6934,-545.2132 243.6934,-545.2132 243.6934,-523.2132 14.6934,-523.2132"/>
<polygon fill="none" stroke="#000000" points="14.6934,-523.2132 14.6934,-545.2132 243.6934,-545.2132 243.6934,-523.2132 14.6934,-523.2132"/>
<text text-anchor="start" x="17.2123" y="-529.6132" font-family="Times,serif" font-size="14.00" fill="#000000">//print_info:wrl18ppce6500_dev/double</text>
</g>
<!-- //print_info:wrl18ppce6500_dev/double_with_cfg (hideous_liar) -->
<g id="node19" class="node">
<title>//print_info:wrl18ppce6500_dev/double_with_cfg (hideous_liar)</title>
<polygon fill="#33bc33" fill-opacity="0.564706" stroke="#000000" points="595.3869,-552.2132 293.3869,-552.2132 293.3869,-516.2132 595.3869,-516.2132 595.3869,-552.2132"/>
<polygon fill="#ffffff" stroke="transparent" points="301.3869,-523.2132 301.3869,-545.2132 587.3869,-545.2132 587.3869,-523.2132 301.3869,-523.2132"/>
<polygon fill="none" stroke="#000000" points="301.3869,-523.2132 301.3869,-545.2132 587.3869,-545.2132 587.3869,-523.2132 301.3869,-523.2132"/>
<text text-anchor="start" x="304.0243" y="-529.6132" font-family="Times,serif" font-size="14.00" fill="#000000">//print_info:wrl18ppce6500_dev/double_with_cfg</text>
</g>
<!-- //print_info:wrl18ppce6500_dev/double (homely_vendor)&#45;&gt;//print_info:wrl18ppce6500_dev/double_with_cfg (hideous_liar) -->
<g id="edge9" class="edge">
<title>//print_info:wrl18ppce6500_dev/double (homely_vendor)-&gt;//print_info:wrl18ppce6500_dev/double_with_cfg (hideous_liar)</title>
<path fill="none" stroke="#000000" d="M251.2006,-534.2132C261.6424,-534.2132 272.3016,-534.2132 282.9826,-534.2132"/>
<polygon fill="#000000" stroke="#000000" points="283.2235,-537.7133 293.2235,-534.2132 283.2234,-530.7133 283.2235,-537.7133"/>
</g>
<!-- //print_info:wrl18ppce6500_dev/double_/double (concerned_pianist) -->
<g id="node20" class="node">
<title>//print_info:wrl18ppce6500_dev/double_/double (concerned_pianist)</title>
<polygon fill="#a44111" fill-opacity="0.941176" stroke="#000000" points="925.3869,-552.2132 631.3869,-552.2132 631.3869,-516.2132 925.3869,-516.2132 925.3869,-552.2132"/>
<polygon fill="#ffffff" stroke="transparent" points="639.3869,-523.2132 639.3869,-545.2132 917.3869,-545.2132 917.3869,-523.2132 639.3869,-523.2132"/>
<polygon fill="none" stroke="#000000" points="639.3869,-523.2132 639.3869,-545.2132 917.3869,-545.2132 917.3869,-523.2132 639.3869,-523.2132"/>
<text text-anchor="start" x="641.9079" y="-529.6132" font-family="Times,serif" font-size="14.00" fill="#000000">//print_info:wrl18ppce6500_dev/double_/double</text>
</g>
<!-- //print_info:wrl18ppce6500_dev/double_with_cfg (hideous_liar)&#45;&gt;//print_info:wrl18ppce6500_dev/double_/double (concerned_pianist) -->
<g id="edge10" class="edge">
<title>//print_info:wrl18ppce6500_dev/double_with_cfg (hideous_liar)-&gt;//print_info:wrl18ppce6500_dev/double_/double (concerned_pianist)</title>
<path fill="none" stroke="#000000" d="M595.751,-534.2132C604.1566,-534.2132 612.6155,-534.2132 621.0415,-534.2132"/>
<polygon fill="#000000" stroke="#000000" points="621.2973,-537.7133 631.2972,-534.2132 621.2972,-530.7133 621.2973,-537.7133"/>
</g>
<!-- //print_info:rhel8x64/triple (homely_vendor) -->
<g id="node21" class="node">
<title>//print_info:rhel8x64/triple (homely_vendor)</title>
<polygon fill="#d02c21" fill-opacity="0.501961" stroke="#000000" points="214.6934,-606.2132 42.6934,-606.2132 42.6934,-570.2132 214.6934,-570.2132 214.6934,-606.2132"/>
<polygon fill="#ffffff" stroke="transparent" points="50.6934,-577.2132 50.6934,-599.2132 206.6934,-599.2132 206.6934,-577.2132 50.6934,-577.2132"/>
<polygon fill="none" stroke="#000000" points="50.6934,-577.2132 50.6934,-599.2132 206.6934,-599.2132 206.6934,-577.2132 50.6934,-577.2132"/>
<text text-anchor="start" x="53.2593" y="-583.6132" font-family="Times,serif" font-size="14.00" fill="#000000">//print_info:rhel8x64/triple</text>
</g>
<!-- //print_info:rhel8x64/triple_with_cfg (hideous_liar) -->
<g id="node22" class="node">
<title>//print_info:rhel8x64/triple_with_cfg (hideous_liar)</title>
<polygon fill="#33bc33" fill-opacity="0.564706" stroke="#000000" points="558.8869,-606.2132 329.8869,-606.2132 329.8869,-570.2132 558.8869,-570.2132 558.8869,-606.2132"/>
<polygon fill="#ffffff" stroke="transparent" points="338.3869,-577.2132 338.3869,-599.2132 551.3869,-599.2132 551.3869,-577.2132 338.3869,-577.2132"/>
<polygon fill="none" stroke="#000000" points="338.3869,-577.2132 338.3869,-599.2132 551.3869,-599.2132 551.3869,-577.2132 338.3869,-577.2132"/>
<text text-anchor="start" x="341.0713" y="-583.6132" font-family="Times,serif" font-size="14.00" fill="#000000">//print_info:rhel8x64/triple_with_cfg</text>
</g>
<!-- //print_info:rhel8x64/triple (homely_vendor)&#45;&gt;//print_info:rhel8x64/triple_with_cfg (hideous_liar) -->
<g id="edge11" class="edge">
<title>//print_info:rhel8x64/triple (homely_vendor)-&gt;//print_info:rhel8x64/triple_with_cfg (hideous_liar)</title>
<path fill="none" stroke="#000000" d="M214.9581,-588.2132C247.1928,-588.2132 284.4806,-588.2132 319.5025,-588.2132"/>
<polygon fill="#000000" stroke="#000000" points="319.8005,-591.7133 329.8005,-588.2132 319.8004,-584.7133 319.8005,-591.7133"/>
</g>
<!-- //print_info:rhel8x64/triple_/triple (rotating_shade) -->
<g id="node23" class="node">
<title>//print_info:rhel8x64/triple_/triple (rotating_shade)</title>
<polygon fill="#9af943" fill-opacity="0.125490" stroke="#000000" points="884.8869,-606.2132 671.8869,-606.2132 671.8869,-570.2132 884.8869,-570.2132 884.8869,-606.2132"/>
<polygon fill="#ffffff" stroke="transparent" points="680.3869,-577.2132 680.3869,-599.2132 877.3869,-599.2132 877.3869,-577.2132 680.3869,-577.2132"/>
<polygon fill="none" stroke="#000000" points="680.3869,-577.2132 680.3869,-599.2132 877.3869,-599.2132 877.3869,-577.2132 680.3869,-577.2132"/>
<text text-anchor="start" x="683.234" y="-583.6132" font-family="Times,serif" font-size="14.00" fill="#000000">//print_info:rhel8x64/triple_/triple</text>
</g>
<!-- //print_info:rhel8x64/triple_with_cfg (hideous_liar)&#45;&gt;//print_info:rhel8x64/triple_/triple (rotating_shade) -->
<g id="edge12" class="edge">
<title>//print_info:rhel8x64/triple_with_cfg (hideous_liar)-&gt;//print_info:rhel8x64/triple_/triple (rotating_shade)</title>
<path fill="none" stroke="#000000" d="M559.3307,-588.2132C592.3355,-588.2132 628.3543,-588.2132 661.4763,-588.2132"/>
<polygon fill="#000000" stroke="#000000" points="661.656,-591.7133 671.656,-588.2132 661.656,-584.7133 661.656,-591.7133"/>
</g>
</g>
</svg>