<?xml version="1.0" encoding="UTF-8" standalone="no"?>
<!DOCTYPE svg PUBLIC "-//W3C//DTD SVG 1.1//EN" "http://www.w3.org/Graphics/SVG/1.1/DTD/svg11.dtd">
<!-- Generated by graphviz version 2.40.1 (20161225.0304)
 -->
<!-- Title: mygraph Pages: 1 -->
<svg width="1069pt" height="392pt" viewBox="0.00 0.00 1069.09 392.21" xmlns="http://www.w3.org/2000/svg" xmlns:xlink="http://www.w3.org/1999/xlink">
<g id="graph0" class="graph" transform="scale(1 1) rotate(0) translate(4 388.2132)">
<title>mygraph</title>
<polygon fill="#ffffff" stroke="transparent" points="-4,4 -4,-388.2132 1065.0854,-388.2132 1065.0854,4 -4,4"/>
<!-- (open_subconscious) -->
<g id="node1" class="node">
<title>(open_subconscious)</title>
<ellipse fill="#e1fec3" fill-opacity="0.878431" stroke="#000000" cx="143.5427" cy="-21.2132" rx="132.4583" ry="21.4286"/>
<polygon fill="#ffffff" stroke="transparent" points="58.5427,-10.2132 58.5427,-32.2132 229.5427,-32.2132 229.5427,-10.2132 58.5427,-10.2132"/>
<polygon fill="none" stroke="#000000" points="58.5427,-10.2132 58.5427,-32.2132 229.5427,-32.2132 229.5427,-10.2132 58.5427,-10.2132"/>
<text text-anchor="start" x="61.4385" y="-16.6132" font-family="Times,serif" font-size="14.00" fill="#000000">e1fec3e (open_subconscious)</text>
</g>
<!-- (frozen_pain) -->
<g id="node2" class="node">
<title>(frozen_pain)</title>
<ellipse fill="#14acbc" fill-opacity="0.439216" stroke="#000000" cx="143.5427" cy="-81.2132" rx="104.8038" ry="21.4286"/>
<polygon fill="#ffffff" stroke="transparent" points="77.5427,-70.2132 77.5427,-92.2132 209.5427,-92.2132 209.5427,-70.2132 77.5427,-70.2132"/>
<polygon fill="none" stroke="#000000" points="77.5427,-70.2132 77.5427,-92.2132 209.5427,-92.2132 209.5427,-70.2132 77.5427,-70.2132"/>
<text text-anchor="start" x="80.3824" y="-76.6132" font-family="Times,serif" font-size="14.00" fill="#000000">14acbc7 (frozen_pain)</text>
</g>
<!-- (miserly_trigonometry) -->
<g id="node3" class="node">
<title>(miserly_trigonometry)</title>
<ellipse fill="#ca4025" fill-opacity="0.627451" stroke="#000000" cx="143.5427" cy="-141.2132" rx="143.5854" ry="21.4286"/>
<polygon fill="#ffffff" stroke="transparent" points="50.5427,-130.2132 50.5427,-152.2132 237.5427,-152.2132 237.5427,-130.2132 50.5427,-130.2132"/>
<polygon fill="none" stroke="#000000" points="50.5427,-130.2132 50.5427,-152.2132 237.5427,-152.2132 237.5427,-130.2132 50.5427,-130.2132"/>
<text text-anchor="start" x="53.2653" y="-136.6132" font-family="Times,serif" font-size="14.00" fill="#000000">ca4025a (miserly_trigonometry)</text>
</g>
<!-- (neighboring_gesture) -->
<g id="node4" class="node">
<title>(neighboring_gesture)</title>
<ellipse fill="#1434c8" fill-opacity="0.752941" stroke="#000000" cx="143.5427" cy="-201.2132" rx="139.1004" ry="21.4286"/>
<polygon fill="#ffffff" stroke="transparent" points="53.5427,-190.2132 53.5427,-212.2132 234.5427,-212.2132 234.5427,-190.2132 53.5427,-190.2132"/>
<polygon fill="none" stroke="#000000" points="53.5427,-190.2132 53.5427,-212.2132 234.5427,-212.2132 234.5427,-190.2132 53.5427,-190.2132"/>
<text text-anchor="start" x="56.3768" y="-196.6132" font-family="Times,serif" font-size="14.00" fill="#000000">1434c8c (neighboring_gesture)</text>
</g>
<!-- //tv_channels:weather/channel (open_subconscious) -->
<g id="node5" class="node">
<title>//tv_channels:weather/channel (open_subconscious)</title>
<polygon fill="#e1fec3" fill-opacity="0.878431" stroke="#000000" points="239.5427,-276.2132 47.5427,-276.2132 47.5427,-240.2132 239.5427,-240.2132 239.5427,-276.2132"/>
<polygon fill="#ffffff" stroke="transparent" points="55.5427,-247.2132 55.5427,-269.2132 231.5427,-269.2132 231.5427,-247.2132 55.5427,-247.2132"/>
<polygon fill="none" stroke="#000000" points="55.5427,-247.2132 55.5427,-269.2132 231.5427,-269.2132 231.5427,-247.2132 55.5427,-247.2132"/>
<text text-anchor="start" x="58.4087" y="-253.6132" font-family="Times,serif" font-size="14.00" fill="#000000">//tv_channels:weather/channel</text>
</g>
<!-- //tv_channels:weather/channel_with_cfg (miserly_trigonometry) -->
<g id="node6" class="node">
<title>//tv_channels:weather/channel_with_cfg (miserly_trigonometry)</title>
<polygon fill="#ca4025" fill-opacity="0.627451" stroke="#000000" points="572.0854,-276.2132 323.0854,-276.2132 323.0854,-240.2132 572.0854,-240.2132 572.0854,-276.2132"/>
<polygon fill="#ffffff" stroke="transparent" points="331.5854,-247.2132 331.5854,-269.2132 564.5854,-269.2132 564.5854,-247.2132 331.5854,-247.2132"/>
<polygon fill="none" stroke="#000000" points="331.5854,-247.2132 331.5854,-269.2132 564.5854,-269.2132 564.5854,-247.2132 331.5854,-247.2132"/>
<text text-anchor="start" x="334.5699" y="-253.6132" font-family="Times,serif" font-size="14.00" fill="#000000">//tv_channels:weather/channel_with_cfg</text>
</g>
<!-- //tv_channels:weather/channel (open_subconscious)&#45;&gt;//tv_channels:weather/channel_with_cfg (miserly_trigonometry) -->
<g id="edge1" class="edge">
<title>//tv_channels:weather/channel (open_subconscious)-&gt;//tv_channels:weather/channel_with_cfg (miserly_trigonometry)</title>
<path fill="none" stroke="#000000" d="M239.7437,-258.2132C262.9856,-258.2132 288.249,-258.2132 312.8966,-258.2132"/>
<polygon fill="#000000" stroke="#000000" points="313.0423,-261.7133 323.0423,-258.2132 313.0423,-254.7133 313.0423,-261.7133"/>
</g>
<!-- //tv_channels:weather/channel_/channel (frozen_pain) -->
<g id="node7" class="node">
<title>//tv_channels:weather/channel_/channel (frozen_pain)</title>
<polygon fill="#14acbc" fill-opacity="0.439216" stroke="#000000" points="854.0854,-276.2132 608.0854,-276.2132 608.0854,-240.2132 854.0854,-240.2132 854.0854,-276.2132"/>
<polygon fill="#ffffff" stroke="transparent" points="616.0854,-247.2132 616.0854,-269.2132 846.0854,-269.2132 846.0854,-247.2132 616.0854,-247.2132"/>
<polygon fill="none" stroke="#000000" points="616.0854,-247.2132 616.0854,-269.2132 846.0854,-269.2132 846.0854,-247.2132 616.0854,-247.2132"/>
<text text-anchor="start" x="618.7389" y="-253.6132" font-family="Times,serif" font-size="14.00" fill="#000000">//tv_channels:weather/channel_/channel</text>
</g>
<!-- //tv_channels:weather/channel_with_cfg (miserly_trigonometry)&#45;&gt;//tv_channels:weather/channel_/channel (frozen_pain) -->
<g id="edge2" class="edge">
<title>//tv_channels:weather/channel_with_cfg (miserly_trigonometry)-&gt;//tv_channels:weather/channel_/channel (frozen_pain)</title>
<path fill="none" stroke="#000000" d="M572.3451,-258.2132C580.6885,-258.2132 589.1116,-258.2132 597.4965,-258.2132"/>
<polygon fill="#000000" stroke="#000000" points="597.6973,-261.7133 607.6973,-258.2132 597.6972,-254.7133 597.6973,-261.7133"/>
</g>
<!-- //tv_channels:acme_media (frozen_pain) -->
<g id="node8" class="node">
<title>//tv_channels:acme_media (frozen_pain)</title>
<polygon fill="#14acbc" fill-opacity="0.439216" stroke="#000000" points="1061.0854,-276.2132 890.0854,-276.2132 890.0854,-240.2132 1061.0854,-240.2132 1061.0854,-276.2132"/>
<polygon fill="#ffffff" stroke="transparent" points="898.5854,-247.2132 898.5854,-269.2132 1053.5854,-269.2132 1053.5854,-247.2132 898.5854,-247.2132"/>
<polygon fill="none" stroke="#000000" points="898.5854,-247.2132 898.5854,-269.2132 1053.5854,-269.2132 1053.5854,-247.2132 898.5854,-247.2132"/>
<text text-anchor="start" x="901.4423" y="-253.6132" font-family="Times,serif" font-size="14.00" fill="#000000">//tv_channels:acme_media</text>
</g>
<!-- //tv_channels:weather/channel_/channel (frozen_pain)&#45;&gt;//tv_channels:acme_media (frozen_pain) -->
<g id="edge3" class="edge">
<title>//tv_channels:weather/channel_/channel (frozen_pain)-&gt;//tv_channels:acme_media (frozen_pain)</title>
<path fill="none" stroke="#000000" d="M854.4098,-258.2132C862.9317,-258.2132 871.4466,-258.2132 879.7889,-258.2132"/>
<polygon fill="#000000" stroke="#000000" points="879.8679,-261.7133 889.8679,-258.2132 879.8678,-254.7133 879.8679,-261.7133"/>
</g>
<!-- //tv_channels:sports/channel (open_subconscious) -->
<g id="node9" class="node">
<title>//tv_channels:sports/channel (open_subconscious)</title>
<polygon fill="#e1fec3" fill-opacity="0.878431" stroke="#000000" points="234.0427,-330.2132 53.0427,-330.2132 53.0427,-294.2132 234.0427,-294.2132 234.0427,-330.2132"/>
<polygon fill="#ffffff" stroke="transparent" points="61.5427,-301.2132 61.5427,-323.2132 226.5427,-323.2132 226.5427,-301.2132 61.5427,-301.2132"/>
<polygon fill="none" stroke="#000000" points="61.5427,-301.2132 61.5427,-323.2132 226.5427,-323.2132 226.5427,-301.2132 61.5427,-301.2132"/>
<text text-anchor="start" x="64.3393" y="-307.6132" font-family="Times,serif" font-size="14.00" fill="#000000">//tv_channels:sports/channel</text>
</g>
<!-- //tv_channels:sports/channel_with_cfg (miserly_trigonometry) -->
<g id="node10" class="node">
<title>//tv_channels:sports/channel_with_cfg (miserly_trigonometry)</title>
<polygon fill="#ca4025" fill-opacity="0.627451" stroke="#000000" points="566.5854,-330.2132 328.5854,-330.2132 328.5854,-294.2132 566.5854,-294.2132 566.5854,-330.2132"/>
<polygon fill="#ffffff" stroke="transparent" points="336.5854,-301.2132 336.5854,-323.2132 558.5854,-323.2132 558.5854,-301.2132 336.5854,-301.2132"/>
<polygon fill="none" stroke="#000000" points="336.5854,-301.2132 336.5854,-323.2132 558.5854,-323.2132 558.5854,-301.2132 336.5854,-301.2132"/>
<text text-anchor="start" x="339.5005" y="-307.6132" font-family="Times,serif" font-size="14.00" fill="#000000">//tv_channels:sports/channel_with_cfg</text>
</g>
<!-- //tv_channels:sports/channel (open_subconscious)&#45;&gt;//tv_channels:sports/channel_with_cfg (miserly_trigonometry) -->
<g id="edge4" class="edge">
<title>//tv_channels:sports/channel (open_subconscious)-&gt;//tv_channels:sports/channel_with_cfg (miserly_trigonometry)</title>
<path fill="none" stroke="#000000" d="M234.3537,-312.2132C260.6913,-312.2132 289.9715,-312.2132 318.1881,-312.2132"/>
<polygon fill="#000000" stroke="#000000" points="318.5282,-315.7133 328.5282,-312.2132 318.5281,-308.7133 318.5282,-315.7133"/>
</g>
<!-- //tv_channels:sports/channel_/channel (neighboring_gesture) -->
<g id="node11" class="node">
<title>//tv_channels:sports/channel_/channel (neighboring_gesture)</title>
<polygon fill="#1434c8" fill-opacity="0.752941" stroke="#000000" points="848.5854,-330.2132 613.5854,-330.2132 613.5854,-294.2132 848.5854,-294.2132 848.5854,-330.2132"/>
<polygon fill="#ffffff" stroke="transparent" points="622.0854,-301.2132 622.0854,-323.2132 841.0854,-323.2132 841.0854,-301.2132 622.0854,-301.2132"/>
<polygon fill="none" stroke="#000000" points="622.0854,-301.2132 622.0854,-323.2132 841.0854,-323.2132 841.0854,-301.2132 622.0854,-301.2132"/>
<text text-anchor="start" x="624.6695" y="-307.6132" font-family="Times,serif" font-size="14.00" fill="#000000">//tv_channels:sports/channel_/channel</text>
</g>
<!-- //tv_channels:sports/channel_with_cfg (miserly_trigonometry)&#45;&gt;//tv_channels:sports/channel_/channel (neighboring_gesture) -->
<g id="edge5" class="edge">
<title>//tv_channels:sports/channel_with_cfg (miserly_trigonometry)-&gt;//tv_channels:sports/channel_/channel (neighboring_gesture)</title>
<path fill="none" stroke="#000000" d="M566.9932,-312.2132C578.9337,-312.2132 591.0912,-312.2132 603.1152,-312.2132"/>
<polygon fill="#000000" stroke="#000000" points="603.1762,-315.7133 613.1762,-312.2132 603.1762,-308.7133 603.1762,-315.7133"/>
</g>
<!-- //tv_channels:acme_media (neighboring_gesture) -->
<g id="node12" class="node">
<title>//tv_channels:acme_media (neighboring_gesture)</title>
<polygon fill="#1434c8" fill-opacity="0.752941" stroke="#000000" points="1061.0854,-330.2132 890.0854,-330.2132 890.0854,-294.2132 1061.0854,-294.2132 1061.0854,-330.2132"/>
<polygon fill="#ffffff" stroke="transparent" points="898.5854,-301.2132 898.5854,-323.2132 1053.5854,-323.2132 1053.5854,-301.2132 898.5854,-301.2132"/>
<polygon fill="none" stroke="#000000" points="898.5854,-301.2132 898.5854,-323.2132 1053.5854,-323.2132 1053.5854,-301.2132 898.5854,-301.2132"/>
<text text-anchor="start" x="901.4423" y="-307.6132" font-family="Times,serif" font-size="14.00" fill="#000000">//tv_channels:acme_media</text>
</g>
<!-- //tv_channels:sports/channel_/channel (neighboring_gesture)&#45;&gt;//tv_channels:acme_media (neighboring_gesture) -->
<g id="edge6" class="edge">
<title>//tv_channels:sports/channel_/channel (neighboring_gesture)-&gt;//tv_channels:acme_media (neighboring_gesture)</title>
<path fill="none" stroke="#000000" d="M848.6803,-312.2132C859.1402,-312.2132 869.6455,-312.2132 879.8894,-312.2132"/>
<polygon fill="#000000" stroke="#000000" points="880.0349,-315.7133 890.0349,-312.2132 880.0349,-308.7133 880.0349,-315.7133"/>
</g>
<!-- //tv_channels:default/channel (miserly_trigonometry) -->
<g id="node13" class="node">
<title>//tv_channels:default/channel (miserly_trigonometry)</title>
<polygon fill="#ca4025" fill-opacity="0.627451" stroke="#000000" points="236.5427,-384.2132 50.5427,-384.2132 50.5427,-348.2132 236.5427,-348.2132 236.5427,-384.2132"/>
<polygon fill="#ffffff" stroke="transparent" points="58.5427,-355.2132 58.5427,-377.2132 228.5427,-377.2132 228.5427,-355.2132 58.5427,-355.2132"/>
<polygon fill="none" stroke="#000000" points="58.5427,-355.2132 58.5427,-377.2132 228.5427,-377.2132 228.5427,-355.2132 58.5427,-355.2132"/>
<text text-anchor="start" x="61.124" y="-361.6132" font-family="Times,serif" font-size="14.00" fill="#000000">//tv_channels:default/channel</text>
</g>
<!-- //tv_channels:acme_media (miserly_trigonometry) -->
<g id="node14" class="node">
<title>//tv_channels:acme_media (miserly_trigonometry)</title>
<polygon fill="#ca4025" fill-opacity="0.627451" stroke="#000000" points="533.0854,-384.2132 362.0854,-384.2132 362.0854,-348.2132 533.0854,-348.2132 533.0854,-384.2132"/>
<polygon fill="#ffffff" stroke="transparent" points="370.5854,-355.2132 370.5854,-377.2132 525.5854,-377.2132 525.5854,-355.2132 370.5854,-355.2132"/>
<polygon fill="none" stroke="#000000" points="370.5854,-355.2132 370.5854,-377.2132 525.5854,-377.2132 525.5854,-355.2132 370.5854,-355.2132"/>
<text text-anchor="start" x="373.4423" y="-361.6132" font-family="Times,serif" font-size="14.00" fill="#000000">//tv_channels:acme_media</text>
</g>
<!-- //tv_channels:default/channel (miserly_trigonometry)&#45;&gt;//tv_channels:acme_media (miserly_trigonometry) -->
<g id="edge7" class="edge">
<title>//tv_channels:default/channel (miserly_trigonometry)-&gt;//tv_channels:acme_media (miserly_trigonometry)</title>
<path fill="none" stroke="#000000" d="M236.8318,-366.2132C273.2909,-366.2132 315.076,-366.2132 351.7744,-366.2132"/>
<polygon fill="#000000" stroke="#000000" points="351.9818,-369.7133 361.9817,-366.2132 351.9817,-362.7133 351.9818,-369.7133"/>
</g>
</g>
</svg>
